<?xml version="1.0" encoding="UTF-8" standalone="no"?>
<svg width="45px" height="45px" viewBox="0 0 45 45" version="1.1" xmlns="http://www.w3.org/2000/svg" xmlns:xlink="http://www.w3.org/1999/xlink">
    <!-- Generator: sketchtool 39.1 (31720) - http://www.bohemiancoding.com/sketch -->
    <title>3F87F550-B991-45DD-ABD4-AD0B54E28680</title>
    <desc>Created with sketchtool.</desc>
    <defs></defs>
    <g id="Assets" stroke="none" stroke-width="1" fill="none" fill-rule="evenodd">
        <g transform="translate(-282.000000, -153.000000)" id="Blouse">
            <g transform="translate(282.000000, 153.000000)">
                <path d="M32.1176031,23.7032066 L26.4553,18.2022 L26.4543,40.8662 L7.5953,40.8662 L7.5953,5.0182 L24.3303,2.1332 L39.5019645,16.495709 L39.8182489,16.187 L43.8616,20.133 L35.6386511,28.16 L31.5953,24.213 L32.1176031,23.7032066 Z" id="Combined-Shape" fill-opacity="0.3" fill="#9AAAAA"></path>
                <polyline id="Stroke-11" stroke="#27324C" points="29.1423 24.7272 23.4553 19.2022 23.4543 41.8662 4.5953 41.8662 4.5953 6.0182 21.3303 3.1332 36.5553 17.5462"></polyline>
                <path d="M4.4829,15.0173 C5.6279,15.0173 6.5569,15.9453 6.5569,17.0913 C6.5569,18.2363 5.6279,19.1653 4.4829,19.1653" id="Stroke-12" stroke="#27324C"></path>
                <path d="M4.4829,21.7511 C5.6279,21.7511 6.5569,22.6801 6.5569,23.8251 C6.5569,24.9701 5.6279,25.8991 4.4829,25.8991" id="Stroke-13" stroke="#27324C"></path>
                <path d="M4.4829,28.4031 C5.6279,28.4031 6.5569,29.3311 6.5569,30.4771 C6.5569,31.6221 5.6279,32.5511 4.4829,32.5511" id="Stroke-14" stroke="#27324C"></path>
                <path d="M17.1553801,6.34364824 C15.9465651,7.53954424 14.1878876,8.0305221 12.7803,8.3887 C9.6753,9.1777 5.2223,8.8157 4.5953,6.0487" id="Stroke-15" stroke="#27324C"></path>
                <polygon id="Stroke-16" stroke="#27324C" points="32.8346 29.16 28.8876 25.213 36.9146 17.187 40.8616 21.133"></polygon>
            </g>
        </g>
    </g>
</svg>