<?xml version="1.0" encoding="UTF-8" standalone="no"?>
<svg width="45px" height="45px" viewBox="0 0 45 45" version="1.1" xmlns="http://www.w3.org/2000/svg" xmlns:xlink="http://www.w3.org/1999/xlink">
    <!-- Generator: sketchtool 39.1 (31720) - http://www.bohemiancoding.com/sketch -->
    <title>C5DD38B2-0F93-4B1C-A05A-B511A0D674A1</title>
    <desc>Created with sketchtool.</desc>
    <defs></defs>
    <g id="Assets" stroke="none" stroke-width="1" fill="none" fill-rule="evenodd">
        <g transform="translate(-279.000000, -299.000000)" id="Boots">
            <g transform="translate(279.000000, 299.000000)">
                <path d="M11.977,19.1558 L11.977,33.3508 L30.267,33.3508 L30.267,31.8158 C30.279,30.3948 29.983,29.2108 29.345,28.3358 C28.708,27.4598 27.812,26.8578 26.854,26.4418 C25.038,25.6528 23.054,25.5398 22.005,25.5288 L22.005,19.1558 L11.977,19.1558 L11.977,19.1558 Z" id="Stroke-1" fill-opacity="0.3" fill="#9AAAAA"></path>
                <path d="M37.023,21.8442 L37.023,7.6492 L18.733,7.6492 L18.733,9.1842 C18.721,10.6052 19.017,11.7892 19.655,12.6642 C20.292,13.5402 21.188,14.1422 22.146,14.5582 C23.962,15.3472 25.946,15.4602 26.995,15.4712 L26.995,21.8442 L37.023,21.8442 L37.023,21.8442 Z" id="Stroke-5" fill-opacity="0.3" fill="#9AAAAA"></path>
                <path d="M9.977,21.1558 L9.977,35.3508 L28.267,35.3508 L28.267,33.8158 C28.279,32.3948 27.983,31.2108 27.345,30.3358 C26.708,29.4598 25.812,28.8578 24.854,28.4418 C23.038,27.6528 21.054,27.5398 20.005,27.5288 L20.005,21.1558 L9.977,21.1558 L9.977,21.1558 Z" id="Stroke-1" stroke="#27324C"></path>
                <path d="M9.977,33.6063 L24.376,33.6063" id="Stroke-3" stroke="#27324C"></path>
                <path d="M35.023,23.8442 L35.023,9.6492 L16.733,9.6492 L16.733,11.1842 C16.721,12.6052 17.017,13.7892 17.655,14.6642 C18.292,15.5402 19.188,16.1422 20.146,16.5582 C21.962,17.3472 23.946,17.4602 24.995,17.4712 L24.995,23.8442 L35.023,23.8442 L35.023,23.8442 Z" id="Stroke-5" stroke="#27324C"></path>
                <path d="M35.023,11.3937 L16.635,11.3937" id="Stroke-7" stroke="#27324C"></path>
            </g>
        </g>
    </g>
</svg>