<?xml version="1.0" encoding="UTF-8" standalone="no"?>
<svg width="45px" height="45px" viewBox="0 0 45 45" version="1.1" xmlns="http://www.w3.org/2000/svg" xmlns:xlink="http://www.w3.org/1999/xlink">
    <!-- Generator: sketchtool 39.1 (31720) - http://www.bohemiancoding.com/sketch -->
    <title>47E78B3F-CF80-49FC-BD17-CD0A158FFEB7</title>
    <desc>Created with sketchtool.</desc>
    <defs></defs>
    <g id="Assets" stroke="none" stroke-width="1" fill="none" fill-rule="evenodd">
        <g transform="translate(-108.000000, -153.000000)" id="ButtonDown">
            <g transform="translate(108.000000, 153.000000)">
                <g id="Page-1-Copy" transform="translate(0.000000, 4.000000)" fill-opacity="0.3" fill="#9AAAAA">
                    <polygon id="Stroke-3" points="39.3108 13.59 29.9778 3.245 27.3608 2.895 25.5588 0 13.7528 0 11.9508 2.895 9.334 3.2454 0 13.5894 7.234 24.9474 7.2336 38.5758 32.0776 38.5758 32.0775986 24.7877998"></polygon>
                </g>
                <g id="Page-1" transform="translate(2.000000, 3.000000)" stroke="#27324C">
                    <polyline id="Stroke-1" points="28.2049 3.1076 25.8699 9.5056 20.5009 4.7116 15.1299 9.5056 12.7949 3.1076"></polyline>
                    <polyline id="Stroke-2" points="26.2066 0.4358 20.5006 4.5558 14.7936 0.4358"></polyline>
                    <polyline id="Stroke-3" points="6.8198 13.375 8.0778 15.187 8.0778 38.788 32.9218 38.788 32.9218 25.16"></polyline>
                    <polyline id="Stroke-4" points="29.828 25.7812 25.133 22.7962 30.398 14.2352 23.74 25.0612 30.376 29.1572 40.155 13.8022 30.822 3.4572 28.205 3.1072 26.403 0.2122 14.597 0.2122 12.795 3.1072"></polyline>
                    <polyline id="Stroke-5" points="8.0782 25.1596 0.8442 13.8016 10.1782 3.4576 12.7952 3.1076"></polyline>
                    <path d="M20.5009,4.5554 L20.5009,38.7874" id="Stroke-6"></path>
                </g>
            </g>
        </g>
    </g>
</svg>