<?xml version="1.0" encoding="UTF-8" standalone="no"?>
<svg width="45px" height="45px" viewBox="0 0 45 45" version="1.1" xmlns="http://www.w3.org/2000/svg" xmlns:xlink="http://www.w3.org/1999/xlink">
    <!-- Generator: sketchtool 39.1 (31720) - http://www.bohemiancoding.com/sketch -->
    <title>D7488CA5-9E46-41F1-9680-E05C5E8A9381</title>
    <desc>Created with sketchtool.</desc>
    <defs></defs>
    <g id="Assets" stroke="none" stroke-width="1" fill="none" fill-rule="evenodd">
        <g transform="translate(-643.000000, -153.000000)" id="Coat">
            <g transform="translate(643.000000, 153.000000)">
                <polygon id="Page-1" fill-opacity="0.3" fill="#9AAAAA" points="40.311 17.5898 30.978 7.2458 28.361 6.8958 26.559 3.9998 14.752 3.9998 12.931 6.9278 10.334 7.2458 1 17.5898 8.234 28.9478 8.234 42.5758 33.078 42.5758 33.078 29.1738"></polygon>
                <polyline id="Stroke-1" stroke="#27324C" points="28.2066 3.4358 22.5006 5.4958 16.7936 3.4358"></polyline>
                <polyline id="Stroke-2" stroke="#27324C" points="8.8198 16.375 10.0778 18.187 10.0778 41.788 34.9218 41.788 34.9218 28.16"></polyline>
                <polyline id="Stroke-3" stroke="#27324C" points="32.3978 17.2352 26.4348 27.2542 33.0708 31.3502 42.1558 16.8022 32.8218 6.4572 30.2048 6.1072 28.4028 3.2122 16.5968 3.2122 14.7748 6.1402 12.1778 6.4572 2.8448 16.8022 10.0778 28.1592"></polyline>
                <g id="Group-10" transform="translate(16.000000, 5.000000)" stroke="#27324C">
                    <path d="M6.5009,36.7879 L6.5009,4.6359 L6.5009,0.4959 C6.5009,0.4959 9.8339,1.8019 6.5009,4.6359" id="Stroke-4"></path>
                    <path d="M2.3725,7.1445 L0.7935,15.5525" id="Stroke-6"></path>
                    <path d="M10.6275,7.1445 L12.2065,15.5525" id="Stroke-8"></path>
                </g>
            </g>
        </g>
    </g>
</svg>