<?xml version="1.0" encoding="UTF-8" standalone="no"?>
<svg width="45px" height="45px" viewBox="0 0 45 45" version="1.1" xmlns="http://www.w3.org/2000/svg" xmlns:xlink="http://www.w3.org/1999/xlink">
    <!-- Generator: sketchtool 39.1 (31720) - http://www.bohemiancoding.com/sketch -->
    <title>05DA5C9D-FCEA-4B73-A491-F7EEF2BC9ECC</title>
    <desc>Created with sketchtool.</desc>
    <defs></defs>
    <g id="Assets" stroke="none" stroke-width="1" fill="none" fill-rule="evenodd">
        <g transform="translate(-279.000000, -226.000000)" id="Dress">
            <g transform="translate(279.000000, 226.000000)">
                <path d="M11.4869,18.6534 C10.8959,14.1794 10.8659,12.2534 10.8659,12.2534 C13.6079,7.5374 10.8659,2.5444 10.8659,2.5444 L14.8859,1.4894 C14.8859,1.4894 16.0379,4.6994 19.4879,6.0194 C22.9369,4.6994 24.0899,1.4894 24.0899,1.4894 L28.1089,2.5444 C28.1089,2.5444 25.3669,7.5374 28.1089,12.2534 C28.1089,12.2534 28.0789,14.1794 27.4889,18.6534 C27.4889,18.6534 30.4059,28.5544 30.6549,39.5104 L8.3449,39.5104 C8.5939,28.5544 11.4869,18.6534 11.4869,18.6534 L11.4869,18.6534 Z" id="Stroke-1" fill-opacity="0.3" fill="#9AAAAA"></path>
                <path d="M14.4869,20.6534 C13.8959,16.1794 13.8659,14.2534 13.8659,14.2534 C16.6079,9.5374 13.8659,4.5444 13.8659,4.5444 L17.8859,3.4894 C17.8859,3.4894 19.0379,6.6994 22.4879,8.0194 C25.9369,6.6994 27.0899,3.4894 27.0899,3.4894 L31.1089,4.5444 C31.1089,4.5444 28.3669,9.5374 31.1089,14.2534 C31.1089,14.2534 31.0789,16.1794 30.4889,20.6534 C30.4889,20.6534 33.4059,30.5544 33.6549,41.5104 L11.3449,41.5104 C11.5939,30.5544 14.4869,20.6534 14.4869,20.6534 L14.4869,20.6534 Z" id="Stroke-1" stroke="#27324C" stroke-linecap="square"></path>
                <path d="M17.4055,20.531 L30.5045,20.531" id="Stroke-3" stroke="#27324C" stroke-linecap="square"></path>
            </g>
        </g>
    </g>
</svg>