<?xml version="1.0" encoding="UTF-8" standalone="no"?>
<svg width="45px" height="45px" viewBox="0 0 45 45" version="1.1" xmlns="http://www.w3.org/2000/svg" xmlns:xlink="http://www.w3.org/1999/xlink">
    <!-- Generator: sketchtool 39.1 (31720) - http://www.bohemiancoding.com/sketch -->
    <title>50C339F3-B6CD-4E0E-919A-6234468211D9</title>
    <desc>Created with sketchtool.</desc>
    <defs></defs>
    <g id="Assets" stroke="none" stroke-width="1" fill="none" fill-rule="evenodd">
        <g transform="translate(-47.000000, -372.000000)" id="Hat">
            <g transform="translate(47.000000, 372.000000)">
                <path d="M31.78,27.6409 L31.775,20.2139 C31.775,15.8699 28.867,12.1909 24.908,10.9999 C24.908,10.9999 23.0681289,9.00000002 22,9.00000002 C21.2231289,9.00000002 19.373,10.9999 19.373,10.9999 C15.414,12.1909 12.506,15.8699 12.506,20.2139 L12.506,27.6409 L11,27.6409 L11,32.8259 L33.281,32.8259 L33.281,27.6409 L31.78,27.6409 Z" id="Page-1" fill-opacity="0.310000002" fill="#9AAAAA"></path>
                <path d="M19.1872,13.3578 C15.2282,14.5488 12.3212,18.2278 12.3212,22.5718 L12.3212,29.5788" id="Stroke-1" stroke="#27324C"></path>
                <path d="M31.5944,29.9986 L31.5894,22.5716 C31.5894,18.2276 28.6814,14.5486 24.7224,13.3576" id="Stroke-3" stroke="#27324C"></path>
                <polyline id="Stroke-5" stroke="#27324C" points="26.0083 29.9986 10.8143 29.9986 10.8143 35.1836 33.0953 35.1836 33.0953 29.9986 31.0993 29.9986"></polyline>
                <path d="M24.6976,11.8762 C24.6976,13.3912 23.4696,14.6192 21.9546,14.6192 C20.4406,14.6192 19.2126,13.3912 19.2126,11.8762 C19.2126,10.3612 20.4406,9.1332 21.9546,9.1332 C23.4696,9.1332 24.6976,10.3612 24.6976,11.8762 L24.6976,11.8762 Z" id="Stroke-7" stroke="#27324C"></path>
            </g>
        </g>
    </g>
</svg>