<?xml version="1.0" encoding="UTF-8" standalone="no"?>
<svg width="45px" height="45px" viewBox="0 0 45 45" version="1.1" xmlns="http://www.w3.org/2000/svg" xmlns:xlink="http://www.w3.org/1999/xlink">
    <!-- Generator: sketchtool 39.1 (31720) - http://www.bohemiancoding.com/sketch -->
    <title>32CCD62C-617B-48F0-B89E-0ED0B1A9A566</title>
    <desc>Created with sketchtool.</desc>
    <defs></defs>
    <g id="Assets" stroke="none" stroke-width="1" fill="none" fill-rule="evenodd">
        <g transform="translate(-48.000000, -299.000000)" id="Heels">
            <g transform="translate(48.000000, 299.000000)">
                <path d="M14.0194444,12 C16.0634444,12 17.8024444,17.457 17.8024444,24.189 C17.8024444,27.052 18.3344444,30.654 17.8024444,32.726 C17.3824444,34.367 14.9884444,36.289 14.0194444,36.822 C13.0504444,36.289 10.6564444,34.367 10.2364444,32.726 C9.70444444,30.654 10.2364444,27.052 10.2364444,24.189 C10.2364444,17.457 11.9754444,12 14.0194444,12 Z M24.6623444,12 C26.7063444,12 28.4453444,17.457 28.4453444,24.189 C28.4453444,27.052 28.9773444,30.654 28.4453444,32.726 C28.0253444,34.367 25.6313444,36.289 24.6623444,36.822 C23.6933444,36.289 21.2993444,34.367 20.8793444,32.726 C20.3473444,30.654 20.8793444,27.052 20.8793444,24.189 C20.8793444,17.457 22.6183444,12 24.6623444,12 Z" id="Combined-Shape" fill-opacity="0.3" fill="#9AAAAA"></path>
                <path d="M16.1005,13.9857 C18.2465,13.9857 18.9625,21.2037 18.9625,21.2037 L19.7035,27.6687 L16.6445,29.7197 C16.4765,29.8327 16.2935,29.9257 16.1005,29.9257 C15.9075,29.9257 15.7245,29.8327 15.5565,29.7197 L12.4975,27.6687 L13.2385,21.2037 C13.2385,21.2037 13.9545,13.9857 16.1005,13.9857 L16.1005,13.9857 Z" id="Stroke-17" stroke="#27324C"></path>
                <path d="M16.1005,10.089 C18.1445,10.089 19.8835,15.546 19.8835,22.278 C19.8835,25.141 20.4155,28.743 19.8835,30.815 C19.4635,32.456 17.0695,34.378 16.1005,34.911 C15.1315,34.378 12.7375,32.456 12.3175,30.815 C11.7855,28.743 12.3175,25.141 12.3175,22.278 C12.3175,15.546 14.0565,10.089 16.1005,10.089 L16.1005,10.089 Z" id="Stroke-18" stroke="#27324C"></path>
                <path d="M29.6054,21.2037 L30.3464,27.6687 C30.3464,27.6687 29.0983385,28.505501 28.4743077,28.9239015 C28.0786718,29.1891676 27.2874,29.7197 27.2874,29.7197 C27.1194,29.8327 26.9364,29.9257 26.7434,29.9257 C26.5504,29.9257 26.3674,29.8327 26.1994,29.7197 L23.1404,27.6687 L23.8814,21.2037 C23.8814,21.2037 24.5974,13.9857 26.7434,13.9857 C28.8894,13.9857 29.6054,21.2037 29.6054,21.2037 Z" id="Stroke-19" stroke="#27324C"></path>
                <path d="M26.7434,10.089 C28.7874,10.089 30.5264,15.546 30.5264,22.278 C30.5264,25.141 31.0584,28.743 30.5264,30.815 C30.1064,32.456 27.7124,34.378 26.7434,34.911 C25.7744,34.378 23.3804,32.456 22.9604,30.815 C22.4284,28.743 22.9604,25.141 22.9604,22.278 C22.9604,15.546 24.6994,10.089 26.7434,10.089 L26.7434,10.089 Z" id="Stroke-20" stroke="#27324C"></path>
            </g>
        </g>
    </g>
</svg>