<?xml version="1.0" encoding="UTF-8" standalone="no"?>
<svg width="45px" height="45px" viewBox="0 0 45 45" version="1.1" xmlns="http://www.w3.org/2000/svg" xmlns:xlink="http://www.w3.org/1999/xlink">
    <!-- Generator: sketchtool 39.1 (31720) - http://www.bohemiancoding.com/sketch -->
    <title>FFEAD9DE-15D8-4E20-8582-6DDC493830DD</title>
    <desc>Created with sketchtool.</desc>
    <defs></defs>
    <g id="Assets" stroke="none" stroke-width="1" fill="none" fill-rule="evenodd">
        <g transform="translate(-582.000000, -153.000000)" id="Jacket">
            <g transform="translate(582.000000, 153.000000)">
                <polyline id="Page-1" fill-opacity="0.3" fill="#9AAAAA" points="23.823 34.5843 23.78 17.1963 34.303 27.8443 39.714 22.3743 28.729 11.6503 19.876 3.0083 5 3.6143 5 37.7283 23.859 37.7283 23.823 34.5843"></polyline>
                <polyline id="Stroke-1" stroke="#27324C" points="23.133 33.2588 23.103 19.1148 33.625 29.7628 39.037 24.2928 28.052 13.5688 19.199 4.9268 4.322 5.5328 4.322 39.6468 23.181 39.6468 23.145 36.5028"></polyline>
                <polyline id="Stroke-2" stroke="#27324C" stroke-linecap="square" points="39.4255 23.7746 41.2885 25.5226 35.1255 32.0526 33.2625 30.3046"></polyline>
                <polyline id="Stroke-3" stroke="#27324C" stroke-linecap="square" points="3.7113 39.6464 3.7113 41.8654 23.8983 41.8654 23.8773 39.6464"></polyline>
                <path d="M12.4604,4.8026 L3.9614,14.9886 L12.4604,14.9886 L12.4604,4.8026 Z M11.4604,7.5616 L11.4604,13.9886 L6.0984,13.9886 L11.4604,7.5616 Z" id="Fill-4" fill="#27324C"></path>
                <path d="M10.1279,12.5622 C10.1279,12.7352 9.9879,12.8742 9.8159,12.8742 C9.6429,12.8742 9.5029,12.7352 9.5029,12.5622 C9.5029,12.3892 9.6429,12.2502 9.8159,12.2502 C9.9879,12.2502 10.1279,12.3892 10.1279,12.5622 L10.1279,12.5622 Z" id="Stroke-5" stroke="#27324C" stroke-linecap="square"></path>
                <path d="M17.5182,34.8808 C17.5182,35.0538 17.3782,35.1928 17.2062,35.1928 C17.0332,35.1928 16.8932,35.0538 16.8932,34.8808 C16.8932,34.7078 17.0332,34.5688 17.2062,34.5688 C17.3782,34.5688 17.5182,34.7078 17.5182,34.8808 L17.5182,34.8808 Z" id="Stroke-7" stroke="#27324C" stroke-linecap="square"></path>
                <polygon id="Stroke-9" stroke="#27324C" stroke-linecap="square" points="15.2301 33.3518 24.7571 33.3518 26.2111 34.8808 24.7571 36.4098 15.2301 36.4098"></polygon>
                <path d="M7.1488,20.4901 L12.4608,20.4901" id="Stroke-11" stroke="#27324C" stroke-linecap="square"></path>
            </g>
        </g>
    </g>
</svg>