<?xml version="1.0" encoding="UTF-8" standalone="no"?>
<svg width="45px" height="45px" viewBox="0 0 45 45" version="1.1" xmlns="http://www.w3.org/2000/svg" xmlns:xlink="http://www.w3.org/1999/xlink">
    <!-- Generator: sketchtool 39.1 (31720) - http://www.bohemiancoding.com/sketch -->
    <title>7EDC0E46-E698-4C02-A29A-5CCAC747AAEA</title>
    <desc>Created with sketchtool.</desc>
    <defs></defs>
    <g id="Assets" stroke="none" stroke-width="1" fill="none" fill-rule="evenodd">
        <g transform="translate(-49.000000, -226.000000)" id="Jeans">
            <g transform="translate(49.000000, 226.000000)">
                <polygon id="Fill-49" fill-opacity="0.3" fill="#9AAAAA" points="32.08 21.431 32.08 10.342 32.468 10.342 32.468 6 12 6 12 9.342 12 10.342 12 20.629 16.167 40.114 32.08 40.181 33.967 40.181 35.854 21.431"></polygon>
                <polygon id="Stroke-6" stroke="#27324C" points="9.495 9.751 29.963 9.751 29.963 5.409 9.495 5.409"></polygon>
                <polyline id="Stroke-8" stroke="#27324C" points="9.4951 8.751 9.4951 20.038 13.6621 39.524 29.5751 39.591 29.5751 9.751"></polyline>
                <polyline id="Stroke-9" stroke="#27324C" points="15.93 14.1379 23.218 14.1379 23.218 14.1379 23.218 21.1159 19.535 22.9759 15.93 20.9609 15.93 16"></polyline>
                <polyline id="Stroke-10" stroke="#27324C" points="29.5751 20.8403 33.3491 20.8403 31.4621 39.5903 29.5751 39.5903"></polyline>
            </g>
        </g>
    </g>
</svg>