<?xml version="1.0" encoding="UTF-8" standalone="no"?>
<svg width="45px" height="45px" viewBox="0 0 45 45" version="1.1" xmlns="http://www.w3.org/2000/svg" xmlns:xlink="http://www.w3.org/1999/xlink">
    <!-- Generator: sketchtool 39.1 (31720) - http://www.bohemiancoding.com/sketch -->
    <title>5FFB3F4E-9FC3-4FF1-95C7-80B72F1A8F87</title>
    <desc>Created with sketchtool.</desc>
    <defs></defs>
    <g id="Assets" stroke="none" stroke-width="1" fill="none" fill-rule="evenodd">
        <g transform="translate(-163.000000, -226.000000)" id="Leggings">
            <g transform="translate(163.000000, 226.000000)">
                <path d="M33.6813,9.751 C35.0003,16.239 32.5013,39.591 32.5013,39.591 L18.2873,39.524 L15.4163,23.585 C15.0873,22.042 14.8153,20.055 14.6593,18.17 C14.5083,16.345 14.7543,7.204 15.1213,5.409 L33.6813,5.409 L33.6813,9.751 L33.6813,9.751 Z" id="Stroke-1" fill-opacity="0.3" fill="#9AAAAA"></path>
                <path d="M30.6813,9.751 C32.0003,16.239 29.5013,39.591 29.5013,39.591 L15.2873,39.524 L12.4163,23.585 C12.0873,22.042 11.8153,20.055 11.6593,18.17 C11.5083,16.345 11.7543,7.204 12.1213,5.409 L30.6813,5.409 L30.6813,9.751 L30.6813,9.751 Z" id="Stroke-1" stroke="#27324C" stroke-linecap="square"></path>
                <path d="M31.3356,22.0412 L34.1816,22.0412 C34.8066,26.0572 31.2006,38.6552 31.2006,38.6552 C31.1476,39.1862 30.7006,39.5902 30.1666,39.5902 L29.2196,39.5902" id="Stroke-3" stroke="#27324C"></path>
                <path d="M30.6813,9.751 L13.3063,9.751" id="Stroke-5" stroke="#27324C" stroke-linecap="square"></path>
            </g>
        </g>
    </g>
</svg>