<?xml version="1.0" encoding="UTF-8" standalone="no"?>
<svg width="45px" height="45px" viewBox="0 0 45 45" version="1.1" xmlns="http://www.w3.org/2000/svg" xmlns:xlink="http://www.w3.org/1999/xlink">
    <!-- Generator: sketchtool 39.1 (31720) - http://www.bohemiancoding.com/sketch -->
    <title>B152F666-AB1E-40A9-A941-72813307C063</title>
    <desc>Created with sketchtool.</desc>
    <defs></defs>
    <g id="Assets" stroke="none" stroke-width="1" fill="none" fill-rule="evenodd">
        <g transform="translate(-514.000000, -299.000000)" id="Loafer">
            <g transform="translate(514.000000, 299.000000)">
                <path d="M28.9164,32.0043 L34.4574,31.4543 C37.3874,31.0833 36.3104,28.2473 36.3104,28.2473 C36.2064,27.8383 35.7404,26.7833 35.7404,26.7833 C35.5384,26.3473 34.9664,25.7043 33.8264,25.7433 C30.5264,25.8543 26.5574,24.5563 25.2264,23.8743 C24.3284,23.4143 23.3914,23.0393 22.5754,22.4483 L20.5354,20.9733 C20.4014,20.8393 20.1664,20.8053 19.9654,20.8393 C19.7634,20.8723 19.5624,21.0073 19.4614,21.1743 C19.2264,21.5103 18.9914,21.9803 18.9584,22.5513 C18.1524,23.0883 16.0044,24.1623 13.1184,23.4903 C10.5004,22.8863 9.2584,22.7183 9.1914,22.7183 C9.1244,22.6853 9.0234,22.6853 8.9224,22.7183 C8.6874,22.7853 8.5204,22.9533 8.4524,23.1553 C7.9494,24.5313 7.7144,26.0083 7.7144,27.4843 L7.7144,28.5253 C7.5464,28.6593 7.4124,28.8613 7.4124,29.0623 L7.4124,31.0763 C7.4124,31.6853 7.9104,32.1833 8.5204,32.1833 L26.3734,32.1833 C27.2244,32.1833 28.0744,32.1233 28.9164,32.0043 L28.9164,32.0043 Z" id="Stroke-1" fill-opacity="0.3" fill="#9AAAAA"></path>
                <path d="M18.0836,8.9957 L12.5426,9.5457 C9.6126,9.9167 10.6896,12.7527 10.6896,12.7527 C10.7936,13.1617 11.2596,14.2167 11.2596,14.2167 C11.4616,14.6527 12.0336,15.2957 13.1736,15.2567 C16.4736,15.1457 20.4426,16.4437 21.7736,17.1257 C22.6716,17.5857 23.6086,17.9607 24.4246,18.5517 L26.4646,20.0267 C26.5986,20.1607 26.8336,20.1947 27.0346,20.1607 C27.2366,20.1277 27.4376,19.9927 27.5386,19.8257 C27.7736,19.4897 28.0086,19.0197 28.0416,18.4487 C28.8476,17.9117 30.9956,16.8377 33.8816,17.5097 C36.4996,18.1137 37.7416,18.2817 37.8086,18.2817 C37.8756,18.3147 37.9766,18.3147 38.0776,18.2817 C38.3126,18.2147 38.4796,18.0467 38.5476,17.8447 C39.0506,16.4687 39.2856,14.9917 39.2856,13.5157 L39.2856,12.4747 C39.4536,12.3407 39.5876,12.1387 39.5876,11.9377 L39.5876,9.9237 C39.5876,9.3147 39.0896,8.8167 38.4796,8.8167 L20.6266,8.8167 C19.7756,8.8167 18.9256,8.8767 18.0836,8.9957 L18.0836,8.9957 Z" id="Stroke-11" fill-opacity="0.3" fill="#9AAAAA"></path>
                <path d="M27.9164,34.0043 L33.4574,33.4543 C36.3874,33.0833 35.3104,30.2473 35.3104,30.2473 C35.2064,29.8383 34.7404,28.7833 34.7404,28.7833 C34.5384,28.3473 33.9664,27.7043 32.8264,27.7433 C29.5264,27.8543 25.5574,26.5563 24.2264,25.8743 C23.3284,25.4143 22.3914,25.0393 21.5754,24.4483 L19.5354,22.9733 C19.4014,22.8393 19.1664,22.8053 18.9654,22.8393 C18.7634,22.8723 18.5624,23.0073 18.4614,23.1743 C18.2264,23.5103 17.9914,23.9803 17.9584,24.5513 C17.1524,25.0883 15.0044,26.1623 12.1184,25.4903 C9.5004,24.8863 8.2584,24.7183 8.1914,24.7183 C8.1244,24.6853 8.0234,24.6853 7.9224,24.7183 C7.6874,24.7853 7.5204,24.9533 7.4524,25.1553 C6.9494,26.5313 6.7144,28.0083 6.7144,29.4843 L6.7144,30.5253 C6.5464,30.6593 6.4124,30.8613 6.4124,31.0623 L6.4124,33.0763 C6.4124,33.6853 6.9104,34.1833 7.5204,34.1833 L25.3734,34.1833 C26.2244,34.1833 27.0744,34.1233 27.9164,34.0043 L27.9164,34.0043 Z" id="Stroke-1" stroke="#27324C" stroke-linecap="square"></path>
                <path d="M35.0398,29.8539 C35.0398,29.8539 29.5758,30.7049 26.1138,30.9029 C22.6528,31.0999 6.7148,30.5249 6.7148,30.5249" id="Stroke-3" stroke="#27324C" stroke-linecap="square"></path>
                <path d="M26.015,26.8529 C26.015,26.8529 25.095,28.5049 23.556,28.5049 C21.614,28.5049 6.996,27.8419 6.996,27.8419" id="Stroke-5" stroke="#27324C" stroke-linecap="square"></path>
                <path d="M21.7128,26.3584 L22.3858,25.3414" id="Stroke-7" stroke="#27324C" stroke-linecap="square"></path>
                <path d="M19.8336,25.7405 L20.9576,24.0025" id="Stroke-9" stroke="#27324C" stroke-linecap="square"></path>
                <path d="M17.0836,10.9957 L11.5426,11.5457 C8.6126,11.9167 9.6896,14.7527 9.6896,14.7527 C9.7936,15.1617 10.2596,16.2167 10.2596,16.2167 C10.4616,16.6527 11.0336,17.2957 12.1736,17.2567 C15.4736,17.1457 19.4426,18.4437 20.7736,19.1257 C21.6716,19.5857 22.6086,19.9607 23.4246,20.5517 L25.4646,22.0267 C25.5986,22.1607 25.8336,22.1947 26.0346,22.1607 C26.2366,22.1277 26.4376,21.9927 26.5386,21.8257 C26.7736,21.4897 27.0086,21.0197 27.0416,20.4487 C27.8476,19.9117 29.9956,18.8377 32.8816,19.5097 C35.4996,20.1137 36.7416,20.2817 36.8086,20.2817 C36.8756,20.3147 36.9766,20.3147 37.0776,20.2817 C37.3126,20.2147 37.4796,20.0467 37.5476,19.8447 C38.0506,18.4687 38.2856,16.9917 38.2856,15.5157 L38.2856,14.4747 C38.4536,14.3407 38.5876,14.1387 38.5876,13.9377 L38.5876,11.9237 C38.5876,11.3147 38.0896,10.8167 37.4796,10.8167 L19.6266,10.8167 C18.7756,10.8167 17.9256,10.8767 17.0836,10.9957 L17.0836,10.9957 Z" id="Stroke-11" stroke="#27324C" stroke-linecap="square"></path>
                <path d="M9.9602,15.1461 C9.9602,15.1461 15.4242,14.2951 18.8862,14.0971 C22.3472,13.9001 38.2852,14.4751 38.2852,14.4751" id="Stroke-13" stroke="#27324C" stroke-linecap="square"></path>
                <path d="M18.985,18.1471 C18.985,18.1471 19.905,16.4951 21.444,16.4951 C23.386,16.4951 38.004,17.1581 38.004,17.1581" id="Stroke-15" stroke="#27324C" stroke-linecap="square"></path>
                <path d="M23.2872,18.6416 L22.6142,19.6586" id="Stroke-17" stroke="#27324C" stroke-linecap="square"></path>
                <path d="M25.1664,19.2595 L24.0424,20.9975" id="Stroke-19" stroke="#27324C" stroke-linecap="square"></path>
            </g>
        </g>
    </g>
</svg>