<?xml version="1.0" encoding="UTF-8" standalone="no"?>
<svg width="45px" height="45px" viewBox="0 0 45 45" version="1.1" xmlns="http://www.w3.org/2000/svg" xmlns:xlink="http://www.w3.org/1999/xlink">
    <!-- Generator: sketchtool 39.1 (31720) - http://www.bohemiancoding.com/sketch -->
    <title>016226A1-9B90-446E-8D72-89AFF2AC04C8</title>
    <desc>Created with sketchtool.</desc>
    <defs></defs>
    <g id="Assets" stroke="none" stroke-width="1" fill="none" fill-rule="evenodd">
        <g transform="translate(-221.000000, -153.000000)" id="Long-Sleeve">
            <g transform="translate(221.000000, 153.000000)">
                <g transform="translate(1.000000, 4.000000)">
                    <path d="M39.3108,13.337 L29.9778,2.992 L27.3608,2.642 C27.3608,2.642 25.4673054,4.74700002 21,4.74700002 C16.5326946,4.74700002 11.9508,2.642 11.9508,2.642 L9.334,2.9924 L0,13.3364 L7.234,24.6944 L7.2336,38.3228 L32.0776,38.3228 L32.0775986,24.5347998 L39.3108,13.337 Z" id="Stroke-3" fill-opacity="0.3" fill="#9AAAAA"></path>
                    <polyline id="Stroke-66" stroke="#27324C" points="8 12 9.258 13.812 9.258 37.413 34.102 37.413 34.1019993 23.247"></polyline>
                    <path d="M9.234,23.283 L2,11.925 L11.334,1.581 L16.14,0 C16.14,0 21.38,4.813 26.55,0 L31.978,1.581 L41.311,11.925 L31.531,27.281 L24.896,23.185 L31.554,12.359 L26.289,20.919" id="Stroke-170" stroke="#27324C"></path>
                    <path d="M13.6499996,1 C13.6499996,1 20.8889996,9.098 29.5889996,1" id="Stroke-172" stroke="#27324C"></path>
                </g>
            </g>
        </g>
    </g>
</svg>