<?xml version="1.0" encoding="UTF-8" standalone="no"?>
<svg width="45px" height="45px" viewBox="0 0 45 45" version="1.1" xmlns="http://www.w3.org/2000/svg" xmlns:xlink="http://www.w3.org/1999/xlink">
    <!-- Generator: sketchtool 39.1 (31720) - http://www.bohemiancoding.com/sketch -->
    <title>9EFF3214-F1C5-412E-9E4B-38F23797A28F</title>
    <desc>Created with sketchtool.</desc>
    <defs></defs>
    <g id="Assets" stroke="none" stroke-width="1" fill="none" fill-rule="evenodd">
        <g transform="translate(-221.000000, -372.000000)" id="Mittens">
            <g transform="translate(221.000000, 372.000000)">
                <path d="M21.8232,25.1223 L21.8232,10.9453 C21.8232,8.2693 20.7712,6.0923 16.9962,6.0923 C14.3342,6.0923 12.1702,8.2693 12.1702,10.9453 L12.1702,15.8543 C12.0422,15.6683 11.9182,15.4813 11.8082,15.3153 C11.6352,15.0533 11.4982,14.8463 11.4022,14.7233 C11.0422,14.2613 10.5272,13.9753 9.9532,13.9143 C9.3752,13.8543 8.8072,14.0293 8.3552,14.4083 C6.9152,15.6073 7.2812,16.5843 8.0212,17.5303 C8.6002,18.2703 11.5492,22.2423 12.0212,22.8783 L12.0212,25.1223 L11.0952,25.1223 L11.0952,29.4203 L22.6682,29.4203 L22.6682,25.1223 L21.8232,25.1223 L21.8232,25.1223 Z" id="Stroke-1" fill-opacity="0.3" fill="#9AAAAA"></path>
                <path d="M25.1768,30.6096 L25.1768,16.4326 C25.1768,13.7566 26.2288,11.5796 30.0038,11.5796 C32.6658,11.5796 34.8298,13.7566 34.8298,16.4326 L34.8298,21.3416 C34.9578,21.1556 35.0818,20.9686 35.1918,20.8026 C35.3648,20.5406 35.5018,20.3336 35.5978,20.2106 C35.9578,19.7486 36.4728,19.4626 37.0468,19.4016 C37.6248,19.3416 38.1928,19.5166 38.6448,19.8956 C40.0848,21.0946 39.7188,22.0716 38.9788,23.0176 C38.3998,23.7576 35.4508,27.7296 34.9788,28.3656 L34.9788,30.6096 L35.9048,30.6096 L35.9048,34.9076 L24.3318,34.9076 L24.3318,30.6096 L25.1768,30.6096 L25.1768,30.6096 Z" id="Stroke-5" fill-opacity="0.3" fill="#9AAAAA"></path>
                <path d="M20.8232,27.1223 L20.8232,12.9453 C20.8232,10.2693 19.7712,8.0923 15.9962,8.0923 C13.3342,8.0923 11.1702,10.2693 11.1702,12.9453 L11.1702,17.8543 C11.0422,17.6683 10.9182,17.4813 10.8082,17.3153 C10.6352,17.0533 10.4982,16.8463 10.4022,16.7233 C10.0422,16.2613 9.5272,15.9753 8.9532,15.9143 C8.3752,15.8543 7.8072,16.0293 7.3552,16.4083 C5.9152,17.6073 6.2812,18.5843 7.0212,19.5303 C7.6002,20.2703 10.5492,24.2423 11.0212,24.8783 L11.0212,27.1223 L10.0952,27.1223 L10.0952,31.4203 L21.6682,31.4203 L21.6682,27.1223 L20.8232,27.1223 L20.8232,27.1223 Z" id="Stroke-1" stroke="#27324C"></path>
                <path d="M20.8232,27.1223 L13.6542,27.1223" id="Stroke-3" stroke="#27324C"></path>
                <path d="M24.1768,32.6096 L24.1768,18.4326 C24.1768,15.7566 25.2288,13.5796 29.0038,13.5796 C31.6658,13.5796 33.8298,15.7566 33.8298,18.4326 L33.8298,23.3416 C33.9578,23.1556 34.0818,22.9686 34.1918,22.8026 C34.3648,22.5406 34.5018,22.3336 34.5978,22.2106 C34.9578,21.7486 35.4728,21.4626 36.0468,21.4016 C36.6248,21.3416 37.1928,21.5166 37.6448,21.8956 C39.0848,23.0946 38.7188,24.0716 37.9788,25.0176 C37.3998,25.7576 34.4508,29.7296 33.9788,30.3656 L33.9788,32.6096 L34.9048,32.6096 L34.9048,36.9076 L23.3318,36.9076 L23.3318,32.6096 L24.1768,32.6096 L24.1768,32.6096 Z" id="Stroke-5" stroke="#27324C"></path>
                <path d="M27.1143,32.6096 L34.2833,32.6096" id="Stroke-7" stroke="#27324C"></path>
            </g>
        </g>
    </g>
</svg>