<?xml version="1.0" encoding="UTF-8" standalone="no"?>
<svg width="45px" height="45px" viewBox="0 0 45 45" version="1.1" xmlns="http://www.w3.org/2000/svg" xmlns:xlink="http://www.w3.org/1999/xlink">
    <!-- Generator: sketchtool 39.1 (31720) - http://www.bohemiancoding.com/sketch -->
    <title>7D2F40A6-914D-4CD8-A081-C291094CC3EF</title>
    <desc>Created with sketchtool.</desc>
    <defs></defs>
    <g id="Assets" stroke="none" stroke-width="1" fill="none" fill-rule="evenodd">
        <g transform="translate(-48.000000, -153.000000)" id="Polo">
            <g transform="translate(48.000000, 153.000000)">
                <g transform="translate(0.000000, 3.000000)">
                    <polygon id="Stroke-4" fill-opacity="0.3" fill="#9AAAAA" points="35.229 41.576 10.385 41.576 10.385 19.813 7.805 23.394 1 17.731 10.28 6.188 15.102 5.896 16.904 3 28.71 3 30.512 5.896 35.334 6.188 44.615 17.731 37.809 23.394 35.229 19.813"></polygon>
                    <polyline id="Stroke-1" stroke="#27324C" points="30.2102 3.1076 27.8752 9.5056 22.5062 4.7116 17.1352 9.5056 14.8002 3.1076"></polyline>
                    <polygon id="Stroke-2" stroke="#27324C" points="22.5059 4.5558 17.5 0.499999999 27.5 0.499999999"></polygon>
                    <polygon id="Stroke-4" stroke="#27324C" points="34.9271 38.7879 10.0831 38.7879 10.0831 17.0249 7.5031 20.6059 0.6981 14.9429 9.9781 3.3999 14.8001 3.1079 16.6021 0.2119 28.4081 0.2119 30.2101 3.1079 35.0321 3.3999 44.3131 14.9429 37.5071 20.6059 34.9271 17.0249"></polygon>
                </g>
            </g>
        </g>
    </g>
</svg>