<?xml version="1.0" encoding="UTF-8" standalone="no"?>
<svg width="45px" height="45px" viewBox="0 0 45 45" version="1.1" xmlns="http://www.w3.org/2000/svg" xmlns:xlink="http://www.w3.org/1999/xlink">
    <!-- Generator: sketchtool 39.1 (31720) - http://www.bohemiancoding.com/sketch -->
    <title>F8D48C9F-D67A-4E78-B578-20C58AD13358</title>
    <desc>Created with sketchtool.</desc>
    <defs></defs>
    <g id="Assets" stroke="none" stroke-width="1" fill="none" fill-rule="evenodd">
        <g transform="translate(-337.000000, -299.000000)" id="Rain-Boots">
            <g transform="translate(337.000000, 299.000000)">
                <path d="M7.977,18.3553 L7.977,40.5503 L13.502,40.5503 L13.497,40.0303 L14.466,40.5503 L26.267,40.5503 L26.267,39.0153 C26.279,37.5943 25.983,36.4103 25.345,35.5353 C24.708,34.6593 23.812,34.0573 22.854,33.6413 C21.038,32.8523 19.054,32.7393 18.005,32.7283 L18.005,18.3553 L7.977,18.3553 L7.977,18.3553 Z" id="Stroke-1" fill-opacity="0.3" fill="#9AAAAA"></path>
                <path d="M33.023,28.6447 L33.023,6.4497 L27.498,6.4497 L27.503,6.9697 L26.534,6.4497 L14.733,6.4497 L14.733,7.9847 C14.721,9.4057 15.017,10.5897 15.655,11.4647 C16.292,12.3407 17.188,12.9427 18.146,13.3587 C19.962,14.1477 21.946,14.2607 22.995,14.2717 L22.995,28.6447 L33.023,28.6447 L33.023,28.6447 Z" id="Stroke-7" fill-opacity="0.3" fill="#9AAAAA"></path>
                <path d="M9.977,17.3553 L9.977,39.5503 L15.502,39.5503 L15.497,39.0303 L16.466,39.5503 L28.267,39.5503 L28.267,38.0153 C28.279,36.5943 27.983,35.4103 27.345,34.5353 C26.708,33.6593 25.812,33.0573 24.854,32.6413 C23.038,31.8523 21.054,31.7393 20.005,31.7283 L20.005,17.3553 L9.977,17.3553 L9.977,17.3553 Z" id="Stroke-1" stroke="#27324C"></path>
                <path d="M34.2997,27.5309 C34.2997,28.5489 33.4737,29.3749 32.4557,29.3749 C31.4377,29.3749 30.6117,28.5489 30.6117,27.5309" id="Stroke-3" stroke="#27324C"></path>
                <path d="M10.599,17.4691 C10.599,16.4511 11.425,15.6251 12.443,15.6251 C13.461,15.6251 14.287,16.4511 14.287,17.4691" id="Stroke-5" stroke="#27324C"></path>
                <path d="M35.023,27.6447 L35.023,5.4497 L29.498,5.4497 L29.503,5.9697 L28.534,5.4497 L16.733,5.4497 L16.733,6.9847 C16.721,8.4057 17.017,9.5897 17.655,10.4647 C18.292,11.3407 19.188,11.9427 20.146,12.3587 C21.962,13.1477 23.946,13.2607 24.995,13.2717 L24.995,27.6447 L35.023,27.6447 L35.023,27.6447 Z" id="Stroke-7" stroke="#27324C"></path>
            </g>
        </g>
    </g>
</svg>