<?xml version="1.0" encoding="UTF-8" standalone="no"?>
<svg width="45px" height="45px" viewBox="0 0 45 45" version="1.1" xmlns="http://www.w3.org/2000/svg" xmlns:xlink="http://www.w3.org/1999/xlink">
    <!-- Generator: sketchtool 39.1 (31720) - http://www.bohemiancoding.com/sketch -->
    <title>E53960E0-1349-40C2-B7A1-16951862293D</title>
    <desc>Created with sketchtool.</desc>
    <defs></defs>
    <g id="Assets" stroke="none" stroke-width="1" fill="none" fill-rule="evenodd">
        <g transform="translate(-105.000000, -299.000000)" id="Sandals">
            <g transform="translate(105.000000, 299.000000)">
                <path d="M21.308,14.698029 C21.299,12.076029 19.228,9.99102903 16.658,10.000029 C14.088,10.008029 12.031,12.106029 12.04,14.728029 L11,27.768029 C11.011,30.966029 13.605,33.541029 16.805,33.531029 C20.004,33.521029 22.58,30.930029 22.569,27.733029 L21.308,14.698029 L21.308,14.698029 Z" id="Stroke-1-Copy" fill-opacity="0.3" fill="#9AAAAA"></path>
                <path d="M36.308,14.698029 C36.299,12.076029 34.228,9.99102903 31.658,10.000029 C29.088,10.008029 27.031,12.106029 27.04,14.728029 L26,27.768029 C26.011,30.966029 28.605,33.541029 31.805,33.531029 C35.004,33.521029 37.58,30.930029 37.569,27.733029 L36.308,14.698029 L36.308,14.698029 Z" id="Stroke-7-Copy" fill-opacity="0.3" fill="#9AAAAA"></path>
                <path d="M19.308,15.698029 C19.299,13.076029 17.228,10.991029 14.658,11.000029 C12.088,11.008029 10.031,13.106029 10.04,15.728029 L9,28.768029 C9.011,31.966029 11.605,34.541029 14.805,34.531029 C18.004,34.521029 20.58,31.930029 20.569,28.733029 L19.308,15.698029 L19.308,15.698029 Z" id="Stroke-1" stroke="#27324C"></path>
                <path d="M9.25,25.0472 C9.25,25.0472 13.913,30.5692 20.234,24.7742" id="Stroke-3" stroke="#27324C"></path>
                <path d="M15.0834,27.4225 L15.0834,31.0415" id="Stroke-5" stroke="#27324C"></path>
                <path d="M34.308,15.698029 C34.299,13.076029 32.228,10.991029 29.658,11.000029 C27.088,11.008029 25.031,13.106029 25.04,15.728029 L24,28.768029 C24.011,31.966029 26.605,34.541029 29.805,34.531029 C33.004,34.521029 35.58,31.930029 35.569,28.733029 L34.308,15.698029 L34.308,15.698029 Z" id="Stroke-7" stroke="#27324C"></path>
                <path d="M24.2669,25.0472 C24.2669,25.0472 28.9299,30.5692 35.2509,24.7742" id="Stroke-9" stroke="#27324C"></path>
                <path d="M29.7589,27.4225 L29.7589,31.0415" id="Stroke-11" stroke="#27324C"></path>
            </g>
        </g>
    </g>
</svg>