<?xml version="1.0" encoding="UTF-8" standalone="no"?>
<svg width="45px" height="45px" viewBox="0 0 45 45" version="1.1" xmlns="http://www.w3.org/2000/svg" xmlns:xlink="http://www.w3.org/1999/xlink">
    <!-- Generator: sketchtool 39.1 (31720) - http://www.bohemiancoding.com/sketch -->
    <title>31E6F1A7-D219-4FD0-B44A-B8E917CE9AF8</title>
    <desc>Created with sketchtool.</desc>
    <defs></defs>
    <g id="Assets" stroke="none" stroke-width="1" fill="none" fill-rule="evenodd">
        <g transform="translate(-105.000000, -372.000000)" id="Scarf">
            <g transform="translate(105.000000, 372.000000)">
                <polygon id="Page-1" fill-opacity="0.26000002" fill="#9AAAAA" points="11.312 6.9995 11.312 8.3595 9.105 8.3595 9 18.8395 11.312 18.8395 11.312 35.8635 22.251 35.8635 22.251 35.8635 22.251 18.8395 31.653 18.8395 31.653 8.3595 22.251 8.3595 22.251 6.9995"></polygon>
                <polygon id="Stroke-1" stroke="#27324C" points="13.4591 6.867 13.4591 35.73 24.3981 35.73 24.3981 35.73 24.3981 35.73 24.3981 6.867"></polygon>
                <polyline id="Stroke-2" stroke="#27324C" points="13.1941 8.2269 11.2001 8.2269 11.2001 18.7069 13.1941 18.7069"></polyline>
                <polyline id="Stroke-3" stroke="#27324C" points="24.557 18.7071 33.8 18.7071 33.8 8.2271 24.663 8.2271"></polyline>
                <path d="M14.5432,35.7305 L14.5432,38.1335" id="Stroke-4" stroke="#27324C"></path>
                <path d="M16.736,35.7305 L16.736,38.1335" id="Stroke-5" stroke="#27324C"></path>
                <path d="M18.9288,35.7305 L18.9288,38.1335" id="Stroke-6" stroke="#27324C"></path>
                <path d="M21.1215,35.7305 L21.1215,38.1335" id="Stroke-7" stroke="#27324C"></path>
                <path d="M23.3143,35.7305 L23.3143,38.1335" id="Stroke-8" stroke="#27324C"></path>
            </g>
        </g>
    </g>
</svg>