<?xml version="1.0" encoding="UTF-8" standalone="no"?>
<svg width="45px" height="45px" viewBox="0 0 45 45" version="1.1" xmlns="http://www.w3.org/2000/svg" xmlns:xlink="http://www.w3.org/1999/xlink">
    <!-- Generator: sketchtool 39.1 (31720) - http://www.bohemiancoding.com/sketch -->
    <title>FDDF7DD9-D7C2-417E-A7F9-0A19817D846E</title>
    <desc>Created with sketchtool.</desc>
    <defs></defs>
    <g id="Assets" stroke="none" stroke-width="1" fill="none" fill-rule="evenodd">
        <g transform="translate(-337.000000, -226.000000)" id="Shorts">
            <g transform="translate(337.000000, 226.000000)">
                <polygon id="Page-1" fill-opacity="0.3" fill="#9AAAAA" points="38.647 10.6929 38.928 10.6929 38.928 6.2109 5.294 6.2109 5.294 10.6929 5.575 10.6929 3 31.8889 19.986 34.0239 22.111 22.3579 24.236 34.0239 41.222 31.8889"></polygon>
                <polygon id="Stroke-1" stroke="#27324C" stroke-width="1.148" points="5.683 13.076 39.317 13.076 39.317 8.594 5.683 8.594"></polygon>
                <polyline id="Stroke-2" stroke="#27324C" stroke-width="1.148" points="39.036 13.0757 41.611 34.2717 24.625 36.4067 22.5 24.7407 20.375 36.4067 3.389 34.2717 5.964 13.0757"></polyline>
                <g id="Group-7" transform="translate(4.000000, 13.000000)" stroke="#27324C" stroke-width="1.148">
                    <path d="M0.722,6.6207 C0.722,6.6207 7.476,6.5177 8.037,0.4457" id="Stroke-3"></path>
                    <path d="M35.4325,6.6207 C35.4325,6.6207 28.6785,6.5177 28.1175,0.4457" id="Stroke-5"></path>
                </g>
            </g>
        </g>
    </g>
</svg>