<?xml version="1.0" encoding="UTF-8" standalone="no"?>
<svg width="45px" height="45px" viewBox="0 0 45 45" version="1.1" xmlns="http://www.w3.org/2000/svg" xmlns:xlink="http://www.w3.org/1999/xlink">
    <!-- Generator: sketchtool 39.1 (31720) - http://www.bohemiancoding.com/sketch -->
    <title>A110485A-76E6-4F40-9B05-EDC0035C293E</title>
    <desc>Created with sketchtool.</desc>
    <defs></defs>
    <g id="Assets" stroke="none" stroke-width="1" fill="none" fill-rule="evenodd">
        <g transform="translate(-219.000000, -226.000000)" id="Skirt">
            <g transform="translate(219.000000, 226.000000)">
                <path d="M8.4054,38.4063 C8.7644,23.4303 12.9564,10.5943 12.9564,10.5943 L36.0434,10.5943 C36.0434,10.5943 40.2354,23.4303 40.5944,38.4063 L8.4054,38.4063 L8.4054,38.4063 Z" id="Stroke-1" fill-opacity="0.3" fill="#9AAAAA"></path>
                <path d="M6.4054,36.4063 C6.7644,21.4303 10.9564,8.5943 10.9564,8.5943 L34.0434,8.5943 C34.0434,8.5943 38.2354,21.4303 38.5944,36.4063 L6.4054,36.4063 L6.4054,36.4063 Z" id="Stroke-1" stroke="#27324C" stroke-linecap="square"></path>
                <path d="M9.7469,12.9066 L32.3749,12.9066" id="Stroke-3" stroke="#27324C" stroke-linecap="square"></path>
                <path d="M35.0304,32.9692 L35.0304,36.4062" id="Stroke-5" stroke="#27324C" stroke-linecap="square"></path>
                <path d="M31.7498,32.9692 L31.7498,36.4062" id="Stroke-7" stroke="#27324C" stroke-linecap="square"></path>
                <path d="M28.4727,32.9692 L28.4727,36.4062" id="Stroke-9" stroke="#27324C" stroke-linecap="square"></path>
            </g>
        </g>
    </g>
</svg>