<?xml version="1.0" encoding="UTF-8" standalone="no"?>
<svg width="45px" height="45px" viewBox="0 0 45 45" version="1.1" xmlns="http://www.w3.org/2000/svg" xmlns:xlink="http://www.w3.org/1999/xlink">
    <!-- Generator: sketchtool 39.1 (31720) - http://www.bohemiancoding.com/sketch -->
    <title>34C235F0-C9BE-4BD9-A780-9CDC5816A6AE</title>
    <desc>Created with sketchtool.</desc>
    <defs></defs>
    <g id="Assets" stroke="none" stroke-width="1" fill="none" fill-rule="evenodd">
        <g transform="translate(-163.000000, -299.000000)" id="Slippers">
            <g transform="translate(163.000000, 299.000000)">
                <path d="M20.57,21.4700357 L19.349,21.4730357 L19.34,17.7000357 C19.33,15.0800357 17.26,12.9900357 14.69,13.0000357 C12.12,13.0100357 10.06,15.1100357 10.07,17.7300357 L10.08,21.4970357 L9,21.5000357 L9.03,30.7700357 C9.04,33.9700357 11.63,36.5400357 14.83,36.5300357 C18.03,36.5200357 20.61,33.9300357 20.6,30.7300357 L20.57,21.4700357 Z" id="Fill-1" fill-opacity="0.3" fill="#9AAAAA"></path>
                <path d="M35.57,21.4700357 L34.349,21.4730357 L34.34,17.7000357 C34.33,15.0800357 32.26,12.9900357 29.69,13.0000357 C27.12,13.0100357 25.06,15.1100357 25.07,17.7300357 L25.08,21.4970357 L24,21.5000357 L24.03,30.7700357 C24.04,33.9700357 26.63,36.5400357 29.83,36.5300357 C33.03,36.5200357 35.61,33.9300357 35.6,30.7300357 L35.57,21.4700357 Z" id="Fill-1-Copy" fill-opacity="0.3" fill="#9AAAAA"></path>
                <path d="M19.6551,19.9016 L19.6551,19.9016 L19.6461,16.1626 C19.6371,13.5416 17.5651,11.4566 14.9951,11.4646 C12.4251,11.4726 10.3691,13.5706 10.3771,16.1926 L10.3871,19.9296" id="Stroke-1" stroke="#27324C"></path>
                <path d="M17.3569,19.9085 L17.3469,16.1125 C17.3429,14.7835 16.2989,13.7375 14.9989,13.7415 C13.6989,13.7455 12.6669,14.7995 12.6709,16.1285 L12.6809,19.9225" id="Stroke-3" stroke="#27324C"></path>
                <path d="M15.1427,34.9956 C18.3417,34.9856 20.9177,32.3946 20.9067,29.1986 L20.8777,19.9296 L9.3097,19.9646 L9.3377,29.2336 C9.3487,32.4306 11.9427,35.0056 15.1427,34.9956 L15.1427,34.9956 Z" id="Stroke-5" stroke="#27324C"></path>
                <path d="M32.1404,19.9085 L32.1304,16.1125 C32.1264,14.7835 31.0824,13.7375 29.7824,13.7415 C28.4824,13.7455 27.4504,14.7995 27.4544,16.1285 L27.4644,19.9225" id="Stroke-7" stroke="#27324C"></path>
                <path d="M34.4386,19.9016 L34.4386,19.9016 L34.4296,16.1626 C34.4206,13.5416 32.3486,11.4566 29.7786,11.4646 C27.2086,11.4726 25.1526,13.5706 25.1606,16.1926 L25.1706,19.9296" id="Stroke-9" stroke="#27324C"></path>
                <path d="M29.9262,34.9956 C33.1252,34.9856 35.7012,32.3946 35.6902,29.1986 L35.6612,19.9296 L24.0932,19.9646 L24.1212,29.2336 C24.1322,32.4306 26.7262,35.0056 29.9262,34.9956 L29.9262,34.9956 Z" id="Stroke-11" stroke="#27324C"></path>
            </g>
        </g>
    </g>
</svg>