<?xml version="1.0" encoding="UTF-8" standalone="no"?>
<svg width="45px" height="45px" viewBox="0 0 45 45" version="1.1" xmlns="http://www.w3.org/2000/svg" xmlns:xlink="http://www.w3.org/1999/xlink">
    <!-- Generator: sketchtool 39.1 (31720) - http://www.bohemiancoding.com/sketch -->
    <title>AD867412-F3CA-4729-B4FF-3AC7A96B8771</title>
    <desc>Created with sketchtool.</desc>
    <defs></defs>
    <g id="Assets" stroke="none" stroke-width="1" fill="none" fill-rule="evenodd">
        <g transform="translate(-396.000000, -299.000000)" id="Sneaks">
            <g transform="translate(396.000000, 299.000000)">
                <path d="M31.6547,34.286 C31.6807,34.165 32.4027,30.544 29.8587,29.683 C25.0067,27.795 23.6107,27.68 22.0867,26.273 L18.5237,22.529 L10.7347,22.529 C10.5597,22.94 10.6637,26.349 10.6887,27.334 C10.7027,27.873 10.5307,28.82 10.3487,29.823 C10.1797,30.748 10.0597,31.21 9.9927,32.04 C9.8927,33.272 10.3067,33.96 10.3537,34.034 C10.4337,34.159 10.5727,34.236 10.7217,34.236 L31.6547,34.286 L31.6547,34.286 Z" id="Stroke-1" fill-opacity="0.3" fill="#9AAAAA"></path>
                <path d="M15.3453,10.714 C15.3193,10.835 14.5973,14.456 17.1413,15.317 C21.9933,17.205 23.3893,17.32 24.9133,18.727 L28.4763,22.471 L36.2653,22.471 C36.4403,22.06 36.3363,18.651 36.3113,17.666 C36.2973,17.127 36.4693,16.18 36.6513,15.177 C36.8203,14.252 36.9403,13.79 37.0073,12.96 C37.1073,11.728 36.6933,11.04 36.6463,10.966 C36.5663,10.841 36.4273,10.764 36.2783,10.764 L15.3453,10.714 L15.3453,10.714 Z" id="Stroke-13" fill-opacity="0.3" fill="#9AAAAA"></path>
                <path d="M29.6547,34.286 C29.6807,34.165 30.4027,30.544 27.8587,29.683 C23.0067,27.795 21.6107,27.68 20.0867,26.273 L16.5237,22.529 L8.7347,22.529 C8.5597,22.94 8.6637,26.349 8.6887,27.334 C8.7027,27.873 8.5307,28.82 8.3487,29.823 C8.1797,30.748 8.0597,31.21 7.9927,32.04 C7.8927,33.272 8.3067,33.96 8.3537,34.034 C8.4337,34.159 8.5727,34.236 8.7217,34.236 L29.6547,34.286 L29.6547,34.286 Z" id="Stroke-1" stroke="#27324C"></path>
                <path d="M29.6413,31.8215 L8.0463,31.8215" id="Stroke-3" stroke="#27324C"></path>
                <path d="M24.8602,28.5686 C24.8602,28.5686 23.1092,29.7146 23.4352,31.8216" id="Stroke-5" stroke="#27324C"></path>
                <path d="M17.797,23.8672 L16.427,25.2372" id="Stroke-7" stroke="#27324C"></path>
                <path d="M19.4773,25.5475 L18.1073,26.9175" id="Stroke-9" stroke="#27324C"></path>
                <path d="M20.9074,26.9776 L19.5374,28.3476" id="Stroke-11" stroke="#27324C"></path>
                <path d="M13.3453,10.714 C13.3193,10.835 12.5973,14.456 15.1413,15.317 C19.9933,17.205 21.3893,17.32 22.9133,18.727 L26.4763,22.471 L34.2653,22.471 C34.4403,22.06 34.3363,18.651 34.3113,17.666 C34.2973,17.127 34.4693,16.18 34.6513,15.177 C34.8203,14.252 34.9403,13.79 35.0073,12.96 C35.1073,11.728 34.6933,11.04 34.6463,10.966 C34.5663,10.841 34.4273,10.764 34.2783,10.764 L13.3453,10.714 L13.3453,10.714 Z" id="Stroke-13" stroke="#27324C"></path>
                <path d="M13.3587,13.1785 L34.9537,13.1785" id="Stroke-15" stroke="#27324C"></path>
                <path d="M18.1398,16.4314 C18.1398,16.4314 19.8908,15.2854 19.5648,13.1784" id="Stroke-17" stroke="#27324C"></path>
                <path d="M25.203,21.1328 L26.573,19.7628" id="Stroke-19" stroke="#27324C"></path>
                <path d="M23.5227,19.4525 L24.8927,18.0825" id="Stroke-21" stroke="#27324C"></path>
                <path d="M22.0926,18.0224 L23.4626,16.6524" id="Stroke-23" stroke="#27324C"></path>
            </g>
        </g>
    </g>
</svg>