<?xml version="1.0" encoding="UTF-8" standalone="no"?>
<svg width="45px" height="45px" viewBox="0 0 45 45" version="1.1" xmlns="http://www.w3.org/2000/svg" xmlns:xlink="http://www.w3.org/1999/xlink">
    <!-- Generator: sketchtool 39.1 (31720) - http://www.bohemiancoding.com/sketch -->
    <title>8E023DF5-6542-45F3-AFB6-8DD4C7609779</title>
    <desc>Created with sketchtool.</desc>
    <defs></defs>
    <g id="Assets" stroke="none" stroke-width="1" fill="none" fill-rule="evenodd">
        <g transform="translate(-108.000000, -226.000000)" id="Sweatpants">
            <g transform="translate(108.000000, 226.000000)">
                <path d="M32.647,21.4313 L30.08,21.4313 L30.08,10.3423 L29.468,10.3423 L29.468,6.0003 L11,6.0003 L11,10.3423 L10,10.3423 L10,16.8623 C10,19.3663 10.264,21.8633 10.788,24.3123 L14.167,40.1143 L30.08,40.1813 L31.027,40.1813 C31.561,40.1813 32.008,39.7773 32.061,39.2463 L33.733,22.6323 C33.798,21.9893 33.293,21.4313 32.647,21.4313 L32.647,21.4313 Z" id="Page-1" fill-opacity="0.3" fill="#9AAAAA"></path>
                <polygon id="Stroke-1" stroke="#27324C" points="13.398 9.825 31.866 9.825 31.866 5.483 13.398 5.483"></polygon>
                <path d="M32.478,9.8252 L32.478,39.6652 L16.565,39.5982 L13.186,23.7952 C12.662,21.3472 12.398,18.8502 12.398,16.3462 L12.398,10.4392" id="Stroke-2" stroke="#27324C" stroke-linecap="square"></path>
                <path d="M32.478,20.9146 L35.045,20.9146 C35.691,20.9146 36.196,21.4726 36.131,22.1156 L34.459,38.7296 C34.406,39.2606 33.958,39.6646 33.424,39.6646 L32.478,39.6646" id="Stroke-4" stroke="#27324C"></path>
                <path d="M16.4082,5.4839 L16.4082,9.8199" id="Stroke-6" stroke="#27324C"></path>
                <path d="M19.643,5.3351 L19.643,9.6771" id="Stroke-8" stroke="#27324C"></path>
                <path d="M25.6207,5.4464 L25.6207,9.7884" id="Stroke-10" stroke="#27324C"></path>
                <path d="M28.7713,5.4839 L28.7713,9.8259" id="Stroke-12" stroke="#27324C"></path>
                <path d="M22.579,5.4839 L22.579,9.8259" id="Stroke-14" stroke="#27324C"></path>
                <path d="M35.8739,23.6684 L32.4779,23.6684" id="Stroke-16" stroke="#27324C"></path>
                <path d="M22.6318,12.6892 C22.6318,12.6892 23.0328,17.3762 29.0328,19.4392" id="Stroke-18" stroke="#27324C"></path>
                <path d="M9.9082,14.21 L13.3982,9.825" id="Stroke-20" stroke="#27324C"></path>
                <path d="M13.0156,10.2166 C13.0156,10.2166 9.5756,6.9066 8.9146,9.6606 C8.3256,12.1156 13.0156,10.2166 13.0156,10.2166 L13.0156,10.2166 Z" id="Stroke-22" stroke="#27324C"></path>
            </g>
        </g>
    </g>
</svg>