<?xml version="1.0" encoding="UTF-8" standalone="no"?>
<svg width="45px" height="45px" viewBox="0 0 45 45" version="1.1" xmlns="http://www.w3.org/2000/svg" xmlns:xlink="http://www.w3.org/1999/xlink">
    <!-- Generator: sketchtool 39.1 (31720) - http://www.bohemiancoding.com/sketch -->
    <title>84618AC7-FFA3-4C39-9A09-AC4D05BB2DE8</title>
    <desc>Created with sketchtool.</desc>
    <defs></defs>
    <g id="Assets" stroke="none" stroke-width="1" fill="none" fill-rule="evenodd">
        <g transform="translate(-458.000000, -153.000000)" id="Sweater">
            <g transform="translate(458.000000, 153.000000)">
                <polygon id="Stroke-1" fill-opacity="0.3" fill="#9AAAAA" points="41.1379 21.7788 30.1529 11.0548 21.2999 2.4118 6.4239 3.0178 6.4239 37.1318 25.2819 37.1318 24.9509 16.2138 35.7269 27.2488"></polygon>
                <polygon id="Stroke-1" stroke="#27324C" points="40.1379 23.7788 29.1529 13.0548 20.2999 4.4118 5.4239 5.0178 5.4239 39.1318 24.2819 39.1318 23.9509 18.2138 34.7269 29.2488"></polygon>
                <g id="Group-28" transform="translate(5.000000, 4.000000)" stroke="#27324C">
                    <path d="M13.5305,0.6948 C12.3615,2.3748 10.2465,2.9718 8.6085,3.3888 C5.5035,4.1778 1.0505,3.8158 0.4235,1.0478" id="Stroke-2"></path>
                    <polyline id="Stroke-4" points="34.5951 20.1344 36.4581 21.8824 32.1581 26.3904 30.2951 24.6434"></polyline>
                    <path d="M33.5414,24.856 L31.6784,23.108" id="Stroke-6"></path>
                    <path d="M35.1122,23.4171 L33.2492,21.6691" id="Stroke-8"></path>
                    <polyline id="Stroke-10" points="1.007 35.1323 1.007 37.3513 18.646 37.3513 18.624 35.5473"></polyline>
                    <path d="M3.2083,35.1323 L3.2083,37.3513" id="Stroke-12"></path>
                    <path d="M5.4167,35.1323 L5.4167,37.3513" id="Stroke-14"></path>
                    <path d="M7.625,35.1323 L7.625,37.3513" id="Stroke-16"></path>
                    <path d="M9.8333,35.1323 L9.8333,37.3513" id="Stroke-18"></path>
                    <path d="M12.0417,35.1323 L12.0417,37.3513" id="Stroke-20"></path>
                    <path d="M14.25,35.1323 L14.25,37.3513" id="Stroke-22"></path>
                    <path d="M16.4583,35.1323 L16.4583,37.3513" id="Stroke-24"></path>
                    <path d="M23.784,8.7893 C23.784,8.7893 22.537,11.0673 24.6,12.7243 C26.662,14.3803 28.085,12.9873 28.085,12.9873" id="Stroke-26"></path>
                </g>
            </g>
        </g>
    </g>
</svg>