<?xml version="1.0" encoding="UTF-8" standalone="no"?>
<svg width="45px" height="45px" viewBox="0 0 45 45" version="1.1" xmlns="http://www.w3.org/2000/svg" xmlns:xlink="http://www.w3.org/1999/xlink">
    <!-- Generator: sketchtool 39.1 (31720) - http://www.bohemiancoding.com/sketch -->
    <title>569DE9DD-2645-4369-8FE1-14FB9715156F</title>
    <desc>Created with sketchtool.</desc>
    <defs></defs>
    <g id="Assets" stroke="none" stroke-width="1" fill="none" fill-rule="evenodd">
        <g transform="translate(-164.000000, -153.000000)" id="TShirt">
            <g transform="translate(164.000000, 153.000000)">
                <g id="Page-1" transform="translate(0.000000, 3.000000)">
                    <path d="M27.701,4 L35.334,6.4 L44.615,17.943 L37.809,23.606 L35.229,20.025 L35.229,41.788 L10.385,41.788 L10.385,20.025 L7.805,23.606 L1,17.943 L10.28,6.4 L17.291,4 C17.291,4 22.531,8.812 27.701,4 L27.701,4 Z" id="Stroke-1" fill-opacity="0.3" fill="#9AAAAA"></path>
                    <path d="M27.3991,0.606 L35.0321,3.006 L44.3131,14.549 L37.5071,20.212 L34.9271,16.631 L34.9271,38.394 L10.0831,38.394 L10.0831,16.631 L7.5031,20.212 L0.6981,14.549 L9.9781,3.006 L16.9891,0.606 C16.9891,0.606 22.2291,5.418 27.3991,0.606 L27.3991,0.606 Z" id="Stroke-1" stroke="#27324C"></path>
                    <path d="M14.2246,1.479 C14.2246,1.479 21.4636,9.577 30.1636,1.479" id="Stroke-3" stroke="#27324C"></path>
                    <path d="M42.7523,12.6084 L39.0053,15.6894" id="Stroke-5" stroke="#27324C"></path>
                    <path d="M10.0835,35.9394 L32.0055,35.9394" id="Stroke-7" stroke="#27324C"></path>
                </g>
            </g>
        </g>
    </g>
</svg>