<?xml version="1.0" encoding="UTF-8" standalone="no"?>
<svg width="45px" height="45px" viewBox="0 0 45 45" version="1.1" xmlns="http://www.w3.org/2000/svg" xmlns:xlink="http://www.w3.org/1999/xlink">
    <!-- Generator: sketchtool 39.1 (31720) - http://www.bohemiancoding.com/sketch -->
    <title>04161AAD-E798-4FF1-8F36-728DE9DFAE98</title>
    <desc>Created with sketchtool.</desc>
    <defs></defs>
    <g id="Assets" stroke="none" stroke-width="1" fill="none" fill-rule="evenodd">
        <g transform="translate(-342.000000, -153.000000)" id="Tank">
            <g transform="translate(342.000000, 153.000000)">
                <path d="M40.182,18.515 C40.182,18.515 35.197,15.087 35.197,5 L32.533,5 C32.533,5 31.691,9.679 25.59,9.58 C19.489,9.679 18.648,5 18.648,5 L15.985,5 C15.985,15.087 11,18.515 11,18.515 L11,43.962 L40.181,43.962 L40.182,18.515 L40.182,18.515 Z" id="Stroke-68" fill-opacity="0.3" fill="#9AAAAA"></path>
                <path d="M37.182,16.768 C37.182,16.768 32.197,13.34 32.197,3.253 L29.533,3.253 C29.533,3.253 28.691,7.932 22.59,7.833 C16.489,7.932 15.648,3.253 15.648,3.253 L12.985,3.253 C12.985,13.34 8,16.768 8,16.768 L8,42.215 L37.181,42.215 L37.182,16.768 L37.182,16.768 Z" id="Stroke-68" stroke="#27324C" stroke-width="1.148"></path>
                <path d="M8,39.253 L33.167,39.253" id="Stroke-70" stroke="#27324D"></path>
            </g>
        </g>
    </g>
</svg>