<?xml version="1.0" encoding="UTF-8" standalone="no"?>
<!DOCTYPE svg PUBLIC "-//W3C//DTD SVG 1.1//EN"
 "http://www.w3.org/Graphics/SVG/1.1/DTD/svg11.dtd">
<!-- Generated by graphviz version 2.38.0 (20140413.2041)
 -->
<!-- Title: controllers_diagram Pages: 1 -->
<svg width="313pt" height="249pt"
 viewBox="0.00 0.00 312.98 249.00" xmlns="http://www.w3.org/2000/svg" xmlns:xlink="http://www.w3.org/1999/xlink">
<g id="graph0" class="graph" transform="scale(1 1) rotate(0) translate(109.159 200.5)">
<title>controllers_diagram</title>
<polygon fill="none" stroke="none" points="-109.159,48.5 -109.159,-200.5 203.821,-200.5 203.821,48.5 -109.159,48.5"/>
<!-- _diagram_info -->
<g id="node1" class="node"><title>_diagram_info</title>
<text text-anchor="start" x="-96.6877" y="-14.1" font-family="Times,serif" font-size="13.00">Controllers diagram</text>
<text text-anchor="start" x="-96.6877" y="-1.1" font-family="Times,serif" font-size="13.00">Date: Sep 16 2016 &#45; 18:02</text>
<text text-anchor="start" x="-96.6877" y="11.9" font-family="Times,serif" font-size="13.00">Migration version: 20160916131945</text>
<text text-anchor="start" x="-96.6877" y="24.9" font-family="Times,serif" font-size="13.00">Generated by RailRoady 1.5.1</text>
<text text-anchor="start" x="-96.6877" y="37.9" font-family="Times,serif" font-size="13.00">http://railroady.prestonlee.com</text>
</g>
<!-- ApplicationController -->
<g id="node2" class="node"><title>ApplicationController</title>
<path fill="none" stroke="black" d="M72.1792,-61C72.1792,-61 187.821,-61 187.821,-61 193.821,-61 199.821,-67 199.821,-73 199.821,-73 199.821,-155 199.821,-155 199.821,-161 193.821,-167 187.821,-167 187.821,-167 72.1792,-167 72.1792,-167 66.1792,-167 60.1792,-161 60.1792,-155 60.1792,-155 60.1792,-73 60.1792,-73 60.1792,-67 66.1792,-61 72.1792,-61"/>
<text text-anchor="middle" x="130" y="-151.8" font-family="Times,serif" font-size="14.00">ApplicationController</text>
<polyline fill="none" stroke="black" points="60.1792,-145 199.821,-145 "/>
<polyline fill="none" stroke="black" points="60.1792,-121 199.821,-121 "/>
<polyline fill="none" stroke="black" points="60.1792,-97 199.821,-97 "/>
<text text-anchor="start" x="68.1792" y="-81.8" font-family="Times,serif" font-size="14.00">_layout</text>
<text text-anchor="start" x="68.1792" y="-67.8" font-family="Times,serif" font-size="14.00">current_user</text>
</g>
<!-- V1::UsersController -->
<g id="node3" class="node"><title>V1::UsersController</title>
<path fill="none" stroke="black" d="M-93.1587,-106C-93.1587,-106 13.1587,-106 13.1587,-106 19.1587,-106 25.1587,-112 25.1587,-118 25.1587,-118 25.1587,-184 25.1587,-184 25.1587,-190 19.1587,-196 13.1587,-196 13.1587,-196 -93.1587,-196 -93.1587,-196 -99.1587,-196 -105.159,-190 -105.159,-184 -105.159,-184 -105.159,-118 -105.159,-118 -105.159,-112 -99.1587,-106 -93.1587,-106"/>
<text text-anchor="middle" x="-40" y="-180.8" font-family="Times,serif" font-size="14.00">V1::UsersController</text>
<polyline fill="none" stroke="black" points="-105.159,-174 25.1587,-174 "/>
<text text-anchor="start" x="-97.1587" y="-158.8" font-family="Times,serif" font-size="14.00">index</text>
<polyline fill="none" stroke="black" points="-105.159,-152 25.1587,-152 "/>
<polyline fill="none" stroke="black" points="-105.159,-128 25.1587,-128 "/>
<text text-anchor="start" x="-97.1587" y="-112.8" font-family="Times,serif" font-size="14.00">_layout</text>
</g>
</g>
</svg>
