<?xml version="1.0" encoding="UTF-8" standalone="no"?>
<!DOCTYPE svg PUBLIC "-//W3C//DTD SVG 1.1//EN"
 "http://www.w3.org/Graphics/SVG/1.1/DTD/svg11.dtd">
<!-- Generated by graphviz version 2.38.0 (20140413.2041)
 -->
<!-- Title: models_diagram Pages: 1 -->
<svg width="516pt" height="207pt"
 viewBox="0.00 0.00 515.66 207.00" xmlns="http://www.w3.org/2000/svg" xmlns:xlink="http://www.w3.org/1999/xlink">
<g id="graph0" class="graph" transform="scale(1 1) rotate(0) translate(4 203)">
<title>models_diagram</title>
<polygon fill="none" stroke="none" points="-4,4 -4,-203 511.657,-203 511.657,4 -4,4"/>
<!-- _diagram_info -->
<g id="node1" class="node"><title>_diagram_info</title>
<text text-anchor="start" x="8" y="-121.6" font-family="Times,serif" font-size="13.00">Models diagram</text>
<text text-anchor="start" x="8" y="-108.6" font-family="Times,serif" font-size="13.00">Date: Sep 16 2016 &#45; 18:02</text>
<text text-anchor="start" x="8" y="-95.6" font-family="Times,serif" font-size="13.00">Migration version: 20160916131945</text>
<text text-anchor="start" x="8" y="-82.6" font-family="Times,serif" font-size="13.00">Generated by RailRoady 1.5.1</text>
<text text-anchor="start" x="8" y="-69.6" font-family="Times,serif" font-size="13.00">http://railroady.prestonlee.com</text>
</g>
<!-- User -->
<g id="node2" class="node"><title>User</title>
<path fill="none" stroke="black" d="M237.719,-0.5C237.719,-0.5 495.657,-0.5 495.657,-0.5 501.657,-0.5 507.657,-6.5 507.657,-12.5 507.657,-12.5 507.657,-186.5 507.657,-186.5 507.657,-192.5 501.657,-198.5 495.657,-198.5 495.657,-198.5 237.719,-198.5 237.719,-198.5 231.719,-198.5 225.719,-192.5 225.719,-186.5 225.719,-186.5 225.719,-12.5 225.719,-12.5 225.719,-6.5 231.719,-0.5 237.719,-0.5"/>
<text text-anchor="middle" x="366.688" y="-183.3" font-family="Times,serif" font-size="14.00">User</text>
<polyline fill="none" stroke="black" points="225.719,-176.5 507.657,-176.5 "/>
<text text-anchor="start" x="233.719" y="-161.3" font-family="Times,serif" font-size="14.00">updated_at :timestamp without time zone</text>
<text text-anchor="start" x="233.719" y="-147.3" font-family="Times,serif" font-size="14.00">email :character varying</text>
<text text-anchor="start" x="233.719" y="-133.3" font-family="Times,serif" font-size="14.00">gender :integer</text>
<text text-anchor="start" x="233.719" y="-119.3" font-family="Times,serif" font-size="14.00">preferred_time :time without time zone</text>
<text text-anchor="start" x="233.719" y="-105.3" font-family="Times,serif" font-size="14.00">weather_perception :integer</text>
<text text-anchor="start" x="233.719" y="-91.3" font-family="Times,serif" font-size="14.00">provider :character varying</text>
<text text-anchor="start" x="233.719" y="-77.3" font-family="Times,serif" font-size="14.00">uid :character varying</text>
<text text-anchor="start" x="233.719" y="-63.3" font-family="Times,serif" font-size="14.00">name :character varying</text>
<text text-anchor="start" x="233.719" y="-49.3" font-family="Times,serif" font-size="14.00">oauth_token :character varying</text>
<text text-anchor="start" x="233.719" y="-35.3" font-family="Times,serif" font-size="14.00">oauth_expires_at :timestamp without time zone</text>
<text text-anchor="start" x="233.719" y="-21.3" font-family="Times,serif" font-size="14.00">created_at :timestamp without time zone</text>
<text text-anchor="start" x="233.719" y="-7.3" font-family="Times,serif" font-size="14.00">id :integer</text>
</g>
</g>
</svg>
