<?xml version="1.0" encoding="UTF-8" standalone="no"?>
<svg width="45px" height="45px" viewBox="0 0 45 45" version="1.1" xmlns="http://www.w3.org/2000/svg" xmlns:xlink="http://www.w3.org/1999/xlink">
    <!-- Generator: sketchtool 39.1 (31720) - http://www.bohemiancoding.com/sketch -->
    <title>891D5287-7195-4150-BC7E-878603D73E4E</title>
    <desc>Created with sketchtool.</desc>
    <defs></defs>
    <g id="Assets" stroke="none" stroke-width="1" fill="none" fill-rule="evenodd">
        <g transform="translate(-279.000000, -599.000000)" id="Boots" stroke="#27324C">
            <g transform="translate(279.000000, 599.000000)">
                <path d="M9.977,21.1558 L9.977,35.3508 L28.267,35.3508 L28.267,33.8158 C28.279,32.3948 27.983,31.2108 27.345,30.3358 C26.708,29.4598 25.812,28.8578 24.854,28.4418 C23.038,27.6528 21.054,27.5398 20.005,27.5288 L20.005,21.1558 L9.977,21.1558 L9.977,21.1558 Z" id="Stroke-1"></path>
                <path d="M9.977,33.6063 L24.376,33.6063" id="Stroke-3"></path>
                <path d="M35.023,23.8442 L35.023,9.6492 L16.733,9.6492 L16.733,11.1842 C16.721,12.6052 17.017,13.7892 17.655,14.6642 C18.292,15.5402 19.188,16.1422 20.146,16.5582 C21.962,17.3472 23.946,17.4602 24.995,17.4712 L24.995,23.8442 L35.023,23.8442 L35.023,23.8442 Z" id="Stroke-5"></path>
                <path d="M35.023,11.3937 L16.635,11.3937" id="Stroke-7"></path>
            </g>
        </g>
    </g>
</svg>