<?xml version="1.0" encoding="UTF-8" standalone="no"?>
<svg width="45px" height="45px" viewBox="0 0 45 45" version="1.1" xmlns="http://www.w3.org/2000/svg" xmlns:xlink="http://www.w3.org/1999/xlink">
    <!-- Generator: sketchtool 39.1 (31720) - http://www.bohemiancoding.com/sketch -->
    <title>97B1151E-5ECC-402E-AC8A-7319DEC8F3BD</title>
    <desc>Created with sketchtool.</desc>
    <defs></defs>
    <g id="Assets" stroke="none" stroke-width="1" fill="none" fill-rule="evenodd">
        <g transform="translate(-453.000000, -599.000000)" id="Dress-Shoe" stroke="#27324C">
            <g transform="translate(453.000000, 599.000000)">
                <path d="M6.7334,31.32 L14.9214,31.32 L16.8724,33.308 L23.3054,33.308 C27.4314,33.308 33.2424,32.341 34.6774,31.66 C34.8574,31.588 35.0364,31.337 34.9644,30.978 C34.8214,30.368 34.9024,28.884 32.4544,28.895 L32.3824,28.895 C31.6294,28.931 30.8394,28.931 30.0504,28.931 C29.9594,28.931 29.8604,28.93 29.7554,28.93 C27.5994,28.921 24.5374,28.031 23.0594,26.461 L19.4644,22.806 C19.4644,22.806 18.2044,25.165 14.9824,25.307 C14.9104,25.31 14.9464,25.307 14.9104,25.307 C12.5784,25.271 8.5954,23.621 8.5594,23.585 C8.3084,23.477 8.0214,23.549 7.8784,23.8 C7.8064,23.944 6.1914,26.814 6.7304,30.33 L6.7394,32.771 C6.7404,33.066 6.9824,33.308 7.2774,33.308 L14.0854,33.308 L14.0824,32.718" id="Stroke-1" stroke-linecap="square"></path>
                <path d="M19.8293,25.6655 L21.6623,23.9985" id="Stroke-3"></path>
                <path d="M21.5793,27.4155 L23.4123,25.7485" id="Stroke-5"></path>
                <path d="M38.2666,13.68 L30.0786,13.68 L28.1276,11.692 L21.6946,11.692 C17.5686,11.692 11.7576,12.659 10.3226,13.34 C10.1426,13.412 9.9636,13.663 10.0356,14.022 C10.1786,14.632 10.0976,16.116 12.5456,16.105 L12.6176,16.105 C13.3706,16.069 14.1606,16.069 14.9496,16.069 C15.0406,16.069 15.1396,16.07 15.2446,16.07 C17.4006,16.079 20.4626,16.969 21.9406,18.539 L25.5356,22.194 C25.5356,22.194 26.7956,19.835 30.0176,19.693 C30.0896,19.69 30.0536,19.693 30.0896,19.693 C32.4216,19.729 36.4046,21.379 36.4406,21.415 C36.6916,21.523 36.9786,21.451 37.1216,21.2 C37.1936,21.056 38.8086,18.186 38.2696,14.67 L38.2606,12.229 C38.2596,11.934 38.0176,11.692 37.7226,11.692 L30.9146,11.692 L30.9176,12.282" id="Stroke-7" stroke-linecap="square"></path>
                <path d="M25.1707,19.3345 L23.3377,21.0015" id="Stroke-9"></path>
                <path d="M23.4207,17.5845 L21.5877,19.2515" id="Stroke-11"></path>
            </g>
        </g>
    </g>
</svg>