<?xml version="1.0" encoding="UTF-8" standalone="no"?>
<svg width="45px" height="45px" viewBox="0 0 45 45" version="1.1" xmlns="http://www.w3.org/2000/svg" xmlns:xlink="http://www.w3.org/1999/xlink">
    <!-- Generator: sketchtool 39.1 (31720) - http://www.bohemiancoding.com/sketch -->
    <title>DB7CEE56-0514-4AEE-949D-91D8248D3D18</title>
    <desc>Created with sketchtool.</desc>
    <defs></defs>
    <g id="Assets" stroke="none" stroke-width="1" fill="none" fill-rule="evenodd">
        <g transform="translate(-222.000000, -599.000000)" id="Flats" stroke="#27324C">
            <g transform="translate(222.000000, 599.000000)">
                <path d="M32.3217,24.5797 C32.2097,21.0707 31.6167,18.1877 31.1097,15.9857 C30.5587,14.7487 28.8697,13.3457 27.7057,13.3457 C26.4577,13.3457 24.5537,14.9347 24.0747,16.2077 C23.5147,18.9467 23.3667,22.2707 23.3277,24.9387 C23.4767,27.3377 25.3667,29.2437 27.6747,29.2437 C28.5257,29.2437 29.3197,28.9847 29.9917,28.5387" id="Stroke-1"></path>
                <path d="M26.5628,34.4797 C27.2618,34.9667 28.1818,34.9647 28.8758,34.4717 C30.2498,33.4967 32.3588,31.3707 32.3588,27.5147 C32.3598,23.0607 32.1218,19.4657 31.6548,16.7197 C31.6538,16.4377 31.5928,16.1417 31.4918,15.8427 C30.7268,12.0667 29.4578,10.1567 27.6878,10.1567 C25.4498,10.1567 24.2858,12.7507 23.6778,16.1177 C23.6368,16.2687 23.6128,16.4157 23.5998,16.5617 C23.1878,19.0927 23.0668,22.0007 23.0318,24.5597 C23.0268,24.5847 23.0168,24.6087 23.0168,24.6347 C23.0168,24.7207 23.0238,24.8027 23.0268,24.8867 C23.0168,25.8277 23.0168,26.7167 23.0168,27.5147 C23.0168,31.3817 25.1698,33.5087 26.5628,34.4797 L26.5628,34.4797 Z" id="Stroke-3"></path>
                <path d="M15.2994,29.2433 C17.7044,29.2433 19.6614,27.1763 19.6614,24.6343 C19.6614,24.6183 19.6704,24.6053 19.6724,24.5883 C19.5604,21.0793 19.2414,18.1883 18.7344,15.9853 C18.1824,14.7493 16.4944,13.3463 15.3304,13.3463 C14.0824,13.3463 12.1774,14.9343 11.6994,16.2073 C11.1394,18.9463 10.9914,22.2713 10.9514,24.9383 C11.1014,27.3383 12.9904,29.2433 15.2994,29.2433 L15.2994,29.2433 Z" id="Stroke-5"></path>
                <path d="M14.1872,34.4797 C14.8862,34.9667 15.8062,34.9647 16.5002,34.4717 C17.8742,33.4967 19.9832,31.3707 19.9832,27.5147 C19.9842,23.0607 19.7462,19.4657 19.2792,16.7197 C19.2782,16.4377 19.2172,16.1417 19.1162,15.8427 C18.3512,12.0667 17.0822,10.1567 15.3122,10.1567 C13.0742,10.1567 11.9102,12.7507 11.3022,16.1177 C11.2612,16.2687 11.2372,16.4157 11.2242,16.5617 C10.8122,19.0927 10.6912,22.0007 10.6562,24.5597 C10.6512,24.5847 10.6412,24.6087 10.6412,24.6347 C10.6412,24.7207 10.6482,24.8027 10.6512,24.8867 C10.6412,25.8277 10.6412,26.7167 10.6412,27.5147 C10.6412,31.3817 12.7942,33.5087 14.1872,34.4797 L14.1872,34.4797 Z" id="Stroke-7"></path>
            </g>
        </g>
    </g>
</svg>