<?xml version="1.0" encoding="UTF-8" standalone="no"?>
<svg width="45px" height="45px" viewBox="0 0 45 45" version="1.1" xmlns="http://www.w3.org/2000/svg" xmlns:xlink="http://www.w3.org/1999/xlink">
    <!-- Generator: sketchtool 39.1 (31720) - http://www.bohemiancoding.com/sketch -->
    <title>E21923CF-F828-40A9-8060-3CCDB62D9321</title>
    <desc>Created with sketchtool.</desc>
    <defs></defs>
    <g id="Assets" stroke="none" stroke-width="1" fill="none" fill-rule="evenodd" stroke-linecap="square">
        <g transform="translate(-514.000000, -599.000000)" id="Loafer" stroke="#27324C">
            <g transform="translate(514.000000, 599.000000)">
                <path d="M27.9164,34.0043 L33.4574,33.4543 C36.3874,33.0833 35.3104,30.2473 35.3104,30.2473 C35.2064,29.8383 34.7404,28.7833 34.7404,28.7833 C34.5384,28.3473 33.9664,27.7043 32.8264,27.7433 C29.5264,27.8543 25.5574,26.5563 24.2264,25.8743 C23.3284,25.4143 22.3914,25.0393 21.5754,24.4483 L19.5354,22.9733 C19.4014,22.8393 19.1664,22.8053 18.9654,22.8393 C18.7634,22.8723 18.5624,23.0073 18.4614,23.1743 C18.2264,23.5103 17.9914,23.9803 17.9584,24.5513 C17.1524,25.0883 15.0044,26.1623 12.1184,25.4903 C9.5004,24.8863 8.2584,24.7183 8.1914,24.7183 C8.1244,24.6853 8.0234,24.6853 7.9224,24.7183 C7.6874,24.7853 7.5204,24.9533 7.4524,25.1553 C6.9494,26.5313 6.7144,28.0083 6.7144,29.4843 L6.7144,30.5253 C6.5464,30.6593 6.4124,30.8613 6.4124,31.0623 L6.4124,33.0763 C6.4124,33.6853 6.9104,34.1833 7.5204,34.1833 L25.3734,34.1833 C26.2244,34.1833 27.0744,34.1233 27.9164,34.0043 L27.9164,34.0043 Z" id="Stroke-1"></path>
                <path d="M35.0398,29.8539 C35.0398,29.8539 29.5758,30.7049 26.1138,30.9029 C22.6528,31.0999 6.7148,30.5249 6.7148,30.5249" id="Stroke-3"></path>
                <path d="M26.015,26.8529 C26.015,26.8529 25.095,28.5049 23.556,28.5049 C21.614,28.5049 6.996,27.8419 6.996,27.8419" id="Stroke-5"></path>
                <path d="M21.7128,26.3584 L22.3858,25.3414" id="Stroke-7"></path>
                <path d="M19.8336,25.7405 L20.9576,24.0025" id="Stroke-9"></path>
                <path d="M17.0836,10.9957 L11.5426,11.5457 C8.6126,11.9167 9.6896,14.7527 9.6896,14.7527 C9.7936,15.1617 10.2596,16.2167 10.2596,16.2167 C10.4616,16.6527 11.0336,17.2957 12.1736,17.2567 C15.4736,17.1457 19.4426,18.4437 20.7736,19.1257 C21.6716,19.5857 22.6086,19.9607 23.4246,20.5517 L25.4646,22.0267 C25.5986,22.1607 25.8336,22.1947 26.0346,22.1607 C26.2366,22.1277 26.4376,21.9927 26.5386,21.8257 C26.7736,21.4897 27.0086,21.0197 27.0416,20.4487 C27.8476,19.9117 29.9956,18.8377 32.8816,19.5097 C35.4996,20.1137 36.7416,20.2817 36.8086,20.2817 C36.8756,20.3147 36.9766,20.3147 37.0776,20.2817 C37.3126,20.2147 37.4796,20.0467 37.5476,19.8447 C38.0506,18.4687 38.2856,16.9917 38.2856,15.5157 L38.2856,14.4747 C38.4536,14.3407 38.5876,14.1387 38.5876,13.9377 L38.5876,11.9237 C38.5876,11.3147 38.0896,10.8167 37.4796,10.8167 L19.6266,10.8167 C18.7756,10.8167 17.9256,10.8767 17.0836,10.9957 L17.0836,10.9957 Z" id="Stroke-11"></path>
                <path d="M9.9602,15.1461 C9.9602,15.1461 15.4242,14.2951 18.8862,14.0971 C22.3472,13.9001 38.2852,14.4751 38.2852,14.4751" id="Stroke-13"></path>
                <path d="M18.985,18.1471 C18.985,18.1471 19.905,16.4951 21.444,16.4951 C23.386,16.4951 38.004,17.1581 38.004,17.1581" id="Stroke-15"></path>
                <path d="M23.2872,18.6416 L22.6142,19.6586" id="Stroke-17"></path>
                <path d="M25.1664,19.2595 L24.0424,20.9975" id="Stroke-19"></path>
            </g>
        </g>
    </g>
</svg>