<?xml version="1.0" encoding="UTF-8" standalone="no"?>
<svg width="45px" height="45px" viewBox="0 0 45 45" version="1.1" xmlns="http://www.w3.org/2000/svg" xmlns:xlink="http://www.w3.org/1999/xlink">
    <!-- Generator: sketchtool 39.1 (31720) - http://www.bohemiancoding.com/sketch -->
    <title>F01C611D-5ED1-411D-B8CF-351928DB0AA0</title>
    <desc>Created with sketchtool.</desc>
    <defs></defs>
    <g id="Assets" stroke="none" stroke-width="1" fill="none" fill-rule="evenodd">
        <g transform="translate(-105.000000, -599.000000)" id="Sandals" stroke="#27324C">
            <g transform="translate(105.000000, 599.000000)">
                <path d="M19.308,15.698029 C19.299,13.076029 17.228,10.991029 14.658,11.000029 C12.088,11.008029 10.031,13.106029 10.04,15.728029 L9,28.768029 C9.011,31.966029 11.605,34.541029 14.805,34.531029 C18.004,34.521029 20.58,31.930029 20.569,28.733029 L19.308,15.698029 L19.308,15.698029 Z" id="Stroke-1"></path>
                <path d="M9.25,25.0472 C9.25,25.0472 13.913,30.5692 20.234,24.7742" id="Stroke-3"></path>
                <path d="M15.0834,27.4225 L15.0834,31.0415" id="Stroke-5"></path>
                <path d="M34.308,15.698029 C34.299,13.076029 32.228,10.991029 29.658,11.000029 C27.088,11.008029 25.031,13.106029 25.04,15.728029 L24,28.768029 C24.011,31.966029 26.605,34.541029 29.805,34.531029 C33.004,34.521029 35.58,31.930029 35.569,28.733029 L34.308,15.698029 L34.308,15.698029 Z" id="Stroke-7"></path>
                <path d="M24.2669,25.0472 C24.2669,25.0472 28.9299,30.5692 35.2509,24.7742" id="Stroke-9"></path>
                <path d="M29.7589,27.4225 L29.7589,31.0415" id="Stroke-11"></path>
            </g>
        </g>
    </g>
</svg>