<?xml version="1.0" encoding="UTF-8" standalone="no"?>
<svg width="45px" height="45px" viewBox="0 0 45 45" version="1.1" xmlns="http://www.w3.org/2000/svg" xmlns:xlink="http://www.w3.org/1999/xlink">
    <!-- Generator: sketchtool 39.1 (31720) - http://www.bohemiancoding.com/sketch -->
    <title>89495AEB-7708-41DC-AACC-B0D010C900C4</title>
    <desc>Created with sketchtool.</desc>
    <defs></defs>
    <g id="Assets" stroke="none" stroke-width="1" fill="none" fill-rule="evenodd">
        <g transform="translate(-520.000000, -453.000000)" id="Sweatshirt" stroke="#27324C">
            <g transform="translate(520.000000, 453.000000)">
                <polyline id="Stroke-1" points="39.6541 24.8234 41.5171 26.5714 37.2171 31.0794 35.3541 29.3324"></polyline>
                <polyline id="Stroke-2" points="6.066 39.8212 6.066 42.0402 23.705 42.0402 23.683 40.2362"></polyline>
                <path d="M5.4827,30.0307 L10.9197,30.0307 C10.9487,32.4607 12.4697,34.6217 14.7467,35.4697 L15.1857,35.6337 L15.1857,39.8217" id="Stroke-3"></path>
                <path d="M8.8577,10.5845 L10.1777,18.4765" id="Stroke-5"></path>
                <path d="M12.3102,9.4707 C7.6722,10.2767 5.4822,11.4147 5.4822,11.4147" id="Stroke-7"></path>
                <path d="M25.7072,10.0414 L40.1972,24.4674 L34.7862,29.9384 L24.0102,18.9024 L24.3412,39.8214 L5.4832,39.8214 L5.4832,11.4154 C6.8932,8.4754 11.4812,5.9474 14.6392,4.4934 C16.7102,3.5404 18.9522,3.0344 21.2312,2.9734 C22.8852,2.9294 24.6712,2.9784 25.4352,3.3314 C27.8602,4.4524 28.9372,9.3764 25.5702,10.1404" id="Stroke-9"></path>
                <path d="M7.7022,17.6555 C7.7022,17.8285 7.5622,17.9675 7.3902,17.9675 C7.2172,17.9675 7.0772,17.8285 7.0772,17.6555 C7.0772,17.4825 7.2172,17.3435 7.3902,17.3435 C7.5622,17.3435 7.7022,17.4825 7.7022,17.6555 L7.7022,17.6555 Z" id="Stroke-11" stroke-linecap="square"></path>
                <path d="M10.6467,18.4765 C10.6467,18.6495 10.5067,18.7885 10.3347,18.7885 C10.1617,18.7885 10.0217,18.6495 10.0217,18.4765 C10.0217,18.3035 10.1617,18.1645 10.3347,18.1645 C10.5067,18.1645 10.6467,18.3035 10.6467,18.4765 L10.6467,18.4765 Z" id="Stroke-13" stroke-linecap="square"></path>
                <path d="M7.3897,17.6555 L7.7017,10.5845" id="Stroke-15"></path>
                <path d="M12.3107,9.4708 C12.3107,9.4708 24.4317,10.9778 25.7067,10.0418" id="Stroke-17"></path>
                <path d="M27.2874,5.4138 C27.2874,9.2928 16.8724,9.2208 12.3104,9.4708" id="Stroke-19"></path>
            </g>
        </g>
    </g>
</svg>