<?xml version="1.0" encoding="UTF-8" standalone="no"?>
<svg width="45px" height="45px" viewBox="0 0 45 45" version="1.1" xmlns="http://www.w3.org/2000/svg" xmlns:xlink="http://www.w3.org/1999/xlink">
    <!-- Generator: sketchtool 39.1 (31720) - http://www.bohemiancoding.com/sketch -->
    <title>287575C8-C0BC-40A1-8947-D6707309B2D1</title>
    <desc>Created with sketchtool.</desc>
    <defs></defs>
    <g id="Assets" stroke="none" stroke-width="1" fill="none" fill-rule="evenodd">
        <g transform="translate(-399.000000, -453.000000)" id="Vest" stroke="#27324C">
            <g transform="translate(399.000000, 453.000000)">
                <g id="Page-1-Copy-2" transform="translate(9.000000, 4.000000)">
                    <g id="Group-44">
                        <path d="M4.9881,0.6597 C4.98810001,1.00000005 12.5681,9.4897 12.6931,14.4897 C12.6931,14.4897 14.5051,36.3397 10.3181,36.3397 L0.2711,36.3397 L0.2711,14.5767 C4.7661,7.1017 1.1661,0.9517 1.1661,0.9517 L25,1.00000005 C25,1.00000005 21.4006,7.1017 25.8956,14.5767 L25.8956,36.3397 L13.4016,36.3397 L13.4736,14.4897 C13.5825178,10.1329891 19.5173419,2.79717664 21.0000009,1.00000005" id="Stroke-36"></path>
                        <path d="M25.8954,26.5522 L18.2764,26.5522 L18.2764,28.8852 C18.2764,28.8852 18.2344,30.1772 20.1094,30.2192 L25.8954,30.2192001" id="Stroke-40"></path>
                        <path d="M0.2712,26.5522 L7.8902,26.5522" id="Stroke-42"></path>
                    </g>
                </g>
            </g>
        </g>
    </g>
</svg>